<?xml version="1.0" encoding="UTF-8"?>
<!DOCTYPE svg PUBLIC "-//W3C//DTD SVG 1.1//EN" "http://www.w3.org/Graphics/SVG/1.1/DTD/svg11.dtd">
<svg xmlns="http://www.w3.org/2000/svg" version="1.1" width="778px" height="778px" style="shape-rendering:geometricPrecision; text-rendering:geometricPrecision; image-rendering:optimizeQuality; fill-rule:evenodd; clip-rule:evenodd" xmlns:xlink="http://www.w3.org/1999/xlink">
<g><path style="opacity:0.961" fill="#090603" d="M 506.5,67.5 C 511.511,67.3341 516.511,67.5007 521.5,68C 525.795,68.8978 529.628,70.7311 533,73.5C 541.676,70.765 550.509,68.9317 559.5,68C 581,88.1667 602.5,108.333 624,128.5C 626.584,161.581 628.751,194.748 630.5,228C 630.167,229.833 629.833,231.667 629.5,233.5C 555.554,250.856 481.554,268.023 407.5,285C 406.24,287.213 405.574,289.713 405.5,292.5C 405.786,296.844 406.12,301.177 406.5,305.5C 412.5,304.5 418.5,303.5 424.5,302.5C 426.069,294.44 431.069,289.94 439.5,289C 448.571,287.54 457.238,288.706 465.5,292.5C 475.214,290.321 484.881,287.988 494.5,285.5C 517.151,306.317 539.651,327.317 562,348.5C 564.018,383.161 565.852,417.827 567.5,452.5C 516.829,463.834 466.163,475.168 415.5,486.5C 419.208,551.22 422.875,615.72 426.5,680C 426.167,680.5 425.833,681 425.5,681.5C 362.987,696.63 300.32,710.796 237.5,724C 216,703.833 194.5,683.667 173,663.5C 163.372,497.698 154.205,331.865 145.5,166C 145.675,164.342 146.342,163.009 147.5,162C 164.833,158 182.167,154 199.5,150C 201.87,141.966 207.204,136.966 215.5,135C 225.95,132.659 235.783,134.159 245,139.5C 262.5,135.434 280,131.434 297.5,127.5C 298.508,119.322 303.175,114.489 311.5,113C 321.822,110.432 331.488,111.932 340.5,117.5C 358.445,113.18 376.445,109.18 394.5,105.5C 394.06,98.7633 397.06,94.2633 403.5,92C 410.667,89.6552 418,88.9885 425.5,90C 429.719,90.7913 433.386,92.6246 436.5,95.5C 454.12,91.1785 471.787,87.0118 489.5,83C 489.92,78.4945 491.92,74.8278 495.5,72C 499.157,70.1776 502.824,68.6776 506.5,67.5 Z"/></g>
<g><path style="opacity:1" fill="#9fc95a" d="M 505.5,69.5 C 511.909,69.1827 518.243,69.6827 524.5,71C 533.66,74.9546 534.66,80.288 527.5,87C 518.442,91.9065 509.109,92.5731 499.5,89C 491.909,84.1788 491.576,78.8455 498.5,73C 500.925,71.7874 503.259,70.6207 505.5,69.5 Z"/></g>
<g><path style="opacity:1" fill="#a1c959" d="M 364.5,143.5 C 358.142,140.95 351.809,140.95 345.5,143.5C 344.5,143.5 343.5,143.5 342.5,143.5C 342.32,135.825 341.986,128.158 341.5,120.5C 359.662,117.11 377.662,113.11 395.5,108.5C 395.334,113.844 395.501,119.177 396,124.5C 396.73,128.896 399.23,131.73 403.5,133C 411.131,136.017 418.798,136.183 426.5,133.5C 427.192,134.025 427.692,134.692 428,135.5C 424.612,159.445 434.779,168.945 458.5,164C 467.291,162.384 471.957,157.217 472.5,148.5C 471.953,141.837 471.453,135.17 471,128.5C 469.945,125.944 468.112,124.277 465.5,123.5C 460.984,120.786 455.984,119.452 450.5,119.5C 446.883,119.398 443.55,120.065 440.5,121.5C 438.975,117.272 438.308,112.772 438.5,108C 438.833,104.833 439.167,101.667 439.5,98.5C 456.765,94.1836 474.098,90.1836 491.5,86.5C 487.599,103.756 494.432,112.756 512,113.5C 516.167,112.766 520.333,112.1 524.5,111.5C 524.613,119.189 525.113,126.855 526,134.5C 526.785,136.286 527.951,137.786 529.5,139C 542.768,145.611 555.268,144.445 567,135.5C 568.089,131.952 568.589,128.285 568.5,124.5C 568.265,118.146 567.765,111.813 567,105.5C 557.937,97.2836 547.604,95.2836 536,99.5C 534.764,91.8637 534.43,84.197 535,76.5C 541.743,74.6062 548.576,72.9395 555.5,71.5C 557.606,72.4295 559.606,73.5962 561.5,75C 580.364,93.5321 599.531,111.699 619,129.5C 619.591,130.483 619.257,131.15 618,131.5C 486.158,161.946 354.325,192.446 222.5,223C 219.833,223.667 217.167,223.667 214.5,223C 193.989,203.988 173.656,184.822 153.5,165.5C 169.583,160.541 185.916,156.541 202.5,153.5C 202.334,158.844 202.501,164.177 203,169.5C 205.796,174.99 210.296,178.156 216.5,179C 222.538,179.471 228.538,179.471 234.5,179C 235.743,186.404 236.577,193.904 237,201.5C 239.852,205.353 243.686,207.853 248.5,209C 276.935,212.214 286.768,200.048 278,172.5C 274.835,168.334 270.668,165.834 265.5,165C 259.13,164.294 252.797,164.461 246.5,165.5C 245.546,158.152 245.546,150.819 246.5,143.5C 263.743,139.071 281.077,135.071 298.5,131.5C 298.909,137.502 299.409,143.502 300,149.5C 303.376,153.94 307.876,156.44 313.5,157C 319.487,157.848 325.32,157.348 331,155.5C 332.219,162.421 332.886,169.421 333,176.5C 335.725,183.3 340.891,186.8 348.5,187C 357.149,187.838 365.149,186.005 372.5,181.5C 373.861,179.972 375.028,178.305 376,176.5C 376.238,167.826 375.905,159.159 375,150.5C 372.388,146.781 368.888,144.448 364.5,143.5 Z"/></g>
<g><path style="opacity:1" fill="#a0c95a" d="M 409.5,91.5 C 416.692,90.9448 423.692,91.7781 430.5,94C 437.885,100.955 436.885,106.622 427.5,111C 418.644,114.646 409.978,114.312 401.5,110C 395.932,106.326 395.265,101.992 399.5,97C 402.767,94.8703 406.1,93.037 409.5,91.5 Z"/></g>
<g><path style="opacity:1" fill="#a0c95a" d="M 539.5,99.5 C 547.185,98.7357 554.519,99.9024 561.5,103C 566.934,107.974 566.601,112.641 560.5,117C 549.219,123.431 538.386,122.931 528,115.5C 525.633,111.001 526.467,107.168 530.5,104C 533.437,102.199 536.437,100.699 539.5,99.5 Z"/></g>
<g><path style="opacity:1" fill="#9fc95a" d="M 313.5,113.5 C 321.206,112.665 328.539,113.831 335.5,117C 341.03,122.313 340.697,127.313 334.5,132C 322.683,138.623 311.517,137.79 301,129.5C 299.348,124.154 300.848,119.987 305.5,117C 308.158,115.522 310.825,114.355 313.5,113.5 Z"/></g>
<g><path style="opacity:1" fill="#1f2614" d="M 465.5,123.5 C 464.833,123.5 464.5,123.833 464.5,124.5C 457.409,121.441 450.075,120.775 442.5,122.5C 442.158,121.662 441.492,121.328 440.5,121.5C 443.55,120.065 446.883,119.398 450.5,119.5C 455.984,119.452 460.984,120.786 465.5,123.5 Z"/></g>
<g><path style="opacity:1" fill="#a0ca5a" d="M 464.5,124.5 C 469.14,127.104 470.307,130.771 468,135.5C 458.638,143.504 448.138,145.338 436.5,141C 428.909,136.179 428.576,130.845 435.5,125C 437.743,123.864 440.076,123.03 442.5,122.5C 450.075,120.775 457.409,121.441 464.5,124.5 Z"/></g>
<g><path style="opacity:1" fill="#a3cd5b" d="M 618.5,134.5 C 619.5,134.5 620.5,134.5 621.5,134.5C 622.862,166.501 624.196,198.501 625.5,230.5C 491.011,261.787 356.344,292.787 221.5,323.5C 220.122,291.481 218.456,259.481 216.5,227.5C 350.73,196.991 484.73,165.991 618.5,134.5 Z"/></g>
<g><path style="opacity:1" fill="#9fc95a" d="M 227.5,157.5 C 224.167,157.5 220.833,157.5 217.5,157.5C 213.127,157.063 209.294,155.397 206,152.5C 203.094,145.475 205.26,140.641 212.5,138C 221.303,134.57 229.969,134.903 238.5,139C 244.601,143.359 244.934,148.026 239.5,153C 235.798,155.354 231.798,156.854 227.5,157.5 Z"/></g>
<g><path style="opacity:1" fill="#3f4f24" d="M 364.5,143.5 C 363.833,143.5 363.5,143.833 363.5,144.5C 357.513,143.216 351.513,143.216 345.5,144.5C 345.5,144.167 345.5,143.833 345.5,143.5C 351.809,140.95 358.142,140.95 364.5,143.5 Z"/></g>
<g><path style="opacity:1" fill="#a0c95a" d="M 363.5,144.5 C 373.678,147.319 375.678,152.819 369.5,161C 358.977,166.524 348.31,166.858 337.5,162C 332.021,156.694 332.355,151.694 338.5,147C 340.743,145.864 343.076,145.03 345.5,144.5C 351.513,143.216 357.513,143.216 363.5,144.5 Z"/></g>
<g><path style="opacity:1" fill="#293417" d="M 217.5,157.5 C 220.833,157.5 224.167,157.5 227.5,157.5C 229.054,158.895 228.721,159.561 226.5,159.5C 223.833,158.167 221.167,158.167 218.5,159.5C 216.279,159.561 215.946,158.895 217.5,157.5 Z"/></g>
<g><path style="opacity:1" fill="#9fc95a" d="M 251.5,165.5 C 258.821,164.859 265.821,166.025 272.5,169C 278.647,176.25 277.314,181.917 268.5,186C 259.342,189.584 250.342,189.25 241.5,185C 236.167,180 236.167,175 241.5,170C 244.893,168.38 248.226,166.88 251.5,165.5 Z"/></g>
<g><path style="opacity:1" fill="#a1cb5a" d="M 151.5,168.5 C 171.797,186.961 191.963,205.628 212,224.5C 214.303,256.151 215.97,287.817 217,319.5C 196.738,300.616 176.571,281.616 156.5,262.5C 153.533,233.256 151.533,203.923 150.5,174.5C 150.205,172.265 150.539,170.265 151.5,168.5 Z"/></g>
<g><path style="opacity:1" fill="#5c7333" d="M 151.5,168.5 C 150.539,170.265 150.205,172.265 150.5,174.5C 149.366,172.034 149.199,169.367 150,166.5C 150.717,167.044 151.217,167.711 151.5,168.5 Z"/></g>
<g><path style="opacity:1" fill="#c6cd47" d="M 157.5,271.5 C 177.921,290.146 198.087,309.146 218,328.5C 219.773,359.192 221.44,389.859 223,420.5C 202.333,401.167 181.667,381.833 161,362.5C 159.31,335.505 157.81,308.505 156.5,281.5C 156.187,277.958 156.521,274.625 157.5,271.5 Z"/></g>
<g><path style="opacity:1" fill="#494b1a" d="M 157.5,271.5 C 156.521,274.625 156.187,277.958 156.5,281.5C 155.192,277.981 155.192,274.315 156.5,270.5C 157.107,270.624 157.44,270.957 157.5,271.5 Z"/></g>
<g><path style="opacity:1" fill="#c8d048" d="M 396.5,288.5 C 397.833,288.5 399.167,288.5 400.5,288.5C 402.901,320.122 404.568,351.789 405.5,383.5C 346.171,396.832 286.837,410.166 227.5,423.5C 225.87,391.831 224.204,360.164 222.5,328.5C 280.628,315.277 338.628,301.944 396.5,288.5 Z"/></g>
<g><path style="opacity:1" fill="#c54226" d="M 439.5,290.5 C 445.925,290.13 452.258,290.63 458.5,292C 467.66,295.955 468.66,301.288 461.5,308C 452.472,313.036 443.139,313.703 433.5,310C 426.003,305.043 425.67,299.71 432.5,294C 434.925,292.787 437.259,291.621 439.5,290.5 Z"/></g>
<g><path style="opacity:1" fill="#c54226" d="M 490.5,290.5 C 511.964,310.128 533.297,329.961 554.5,350C 506.193,361.327 457.86,372.494 409.5,383.5C 409.221,361.969 408.221,340.469 406.5,319C 406.833,316.167 407.167,313.333 407.5,310.5C 413.311,308.309 419.311,306.976 425.5,306.5C 421.179,324.496 428.179,333.83 446.5,334.5C 450.473,333.616 454.473,332.949 458.5,332.5C 458.723,340.181 459.223,347.847 460,355.5C 460.785,357.286 461.951,358.786 463.5,360C 473.669,365.367 484.002,365.7 494.5,361C 497.321,359.178 499.821,357.011 502,354.5C 502.918,344.687 502.252,335.02 500,325.5C 490.939,318.327 480.939,316.661 470,320.5C 469.14,312.153 468.307,303.82 467.5,295.5C 475.403,294.409 483.07,292.742 490.5,290.5 Z"/></g>
<g><path style="opacity:1" fill="#c54226" d="M 472.5,320.5 C 478.925,320.13 485.258,320.63 491.5,322C 500.66,325.955 501.66,331.288 494.5,338C 483.271,344.424 472.437,343.924 462,336.5C 459.29,331.271 460.457,327.104 465.5,324C 467.925,322.787 470.259,321.621 472.5,320.5 Z"/></g>
<g><path style="opacity:1" fill="#c94326" d="M 552.5,353.5 C 554.5,353.5 556.5,353.5 558.5,353.5C 559.724,384.191 561.39,414.858 563.5,445.5C 563.167,446.5 562.833,447.5 562.5,448.5C 453.232,474.046 343.899,499.379 234.5,524.5C 233.353,524.182 232.519,523.516 232,522.5C 230.785,494.818 229.285,467.151 227.5,439.5C 227.518,435.916 227.852,432.416 228.5,429C 336.698,404.115 444.698,378.948 552.5,353.5 Z"/></g>
<g><path style="opacity:1" fill="#c74326" d="M 161.5,371.5 C 182.13,390.294 202.63,409.294 223,428.5C 225.075,459.507 226.741,490.507 228,521.5C 207.596,502.051 187.096,482.718 166.5,463.5C 163.79,432.891 162.123,402.224 161.5,371.5 Z"/></g>
<g><path style="opacity:1" fill="#c82a69" d="M 166.5,471.5 C 187.063,490.711 207.563,510.044 228,529.5C 230.592,559.102 232.258,588.769 233,618.5C 212.333,599.167 191.667,579.833 171,560.5C 169.399,530.836 167.899,501.169 166.5,471.5 Z"/></g>
<g><path style="opacity:1" fill="#ca2a6a" d="M 408.5,487.5 C 409.5,487.5 410.5,487.5 411.5,487.5C 412.922,517.178 414.588,546.845 416.5,576.5C 416.167,578.167 415.833,579.833 415.5,581.5C 356.233,595.483 296.9,609.15 237.5,622.5C 236.093,591.17 234.759,559.836 233.5,528.5C 292.041,515.36 350.374,501.693 408.5,487.5 Z"/></g>
<g><path style="opacity:1" fill="#bb92c1" d="M 171.5,569.5 C 192.463,588.628 213.297,607.961 234,627.5C 235.894,656.824 237.228,686.157 238,715.5C 217.667,696.5 197.333,677.5 177,658.5C 174.864,628.884 173.031,599.218 171.5,569.5 Z"/></g>
<g><path style="opacity:1" fill="#bd94c3" d="M 414.5,585.5 C 416.275,589.386 417.108,593.72 417,598.5C 418.63,625.164 420.13,651.83 421.5,678.5C 363.806,691.473 306.139,704.639 248.5,718C 246.833,718.667 245.167,718.667 243.5,718C 241.259,687.587 239.592,657.087 238.5,626.5C 297.442,613.462 356.109,599.796 414.5,585.5 Z"/></g>
</svg>
