<?xml version="1.0" encoding="UTF-8"?>
<!-- Generator: visioncortex VTracer -->
<svg id="svg" version="1.1" xmlns="http://www.w3.org/2000/svg" style="display: block;" viewBox="0 0 778 778"><path d="M0 0 C2.66039937 1.33019968 3.75772199 0.73599528 6.61328125 0.00390625 C7.53173828 -0.22490234 8.45019531 -0.45371094 9.39648438 -0.68945312 C10.83991211 -1.05973633 10.83991211 -1.05973633 12.3125 -1.4375 C14.20306731 -1.92071619 16.09496644 -2.39875735 17.98828125 -2.87109375 C18.82915283 -3.08693115 19.67002441 -3.30276855 20.53637695 -3.52514648 C26.87293553 -4.74649287 26.87293553 -4.74649287 29.6340332 -2.91772461 C30.33532349 -2.16761108 30.33532349 -2.16761108 31.05078125 -1.40234375 C31.58034424 -0.85151123 32.10990723 -0.30067871 32.65551758 0.2668457 C33.20232178 0.85941162 33.74912598 1.45197754 34.3125 2.0625 C35.46683934 3.2674583 36.62308 4.47059815 37.78125 5.671875 C38.33554687 6.25130859 38.88984375 6.83074219 39.4609375 7.42773438 C41.89591974 9.91524796 44.52502643 12.14389036 47.17578125 14.39453125 C49.91650445 16.80660242 52.43566865 19.42683372 54.99609375 22.02734375 C57.58246151 24.57337829 60.3153528 26.92021557 63.06640625 29.28515625 C65.56569138 31.50169397 67.88281884 33.87162281 70.22265625 36.25390625 C72.06593574 38.06477643 73.97822799 39.75321354 75.9375 41.4375 C79.5307062 44.52932859 82.85095592 47.82727699 86.171875 51.20703125 C88.31851102 53.31238581 90.6400876 55.14067508 93 57 C94.63283747 60.26567495 94.38675274 63.9004753 94.57250977 67.49780273 C94.62142365 68.37775406 94.67033752 69.25770538 94.72073364 70.1643219 C94.88202068 73.08719062 95.03684348 76.0103623 95.19140625 78.93359375 C95.30177596 80.96706253 95.41245222 83.0005147 95.52342224 85.03395081 C95.75563808 89.30691218 95.98478072 93.58002403 96.21166992 97.85327148 C96.5013976 103.30721286 96.79761745 108.76077677 97.09605503 114.2142477 C97.32568301 118.42053638 97.55231859 122.62698216 97.77802849 126.83348274 C97.88607748 128.8423902 97.99491685 130.85125532 98.10458565 132.860075 C99.16766329 152.40314985 99.16766329 152.40314985 99 162 C88.05623125 165.00330859 77.06217458 167.67582252 66.00268555 170.21435547 C64.24952707 170.61877818 62.49642089 171.02342768 60.74336243 171.42828369 C56.02417251 172.51748076 51.30426601 173.60354173 46.58421683 174.68900824 C41.6045284 175.83476689 36.62552224 176.98348301 31.6464386 178.13186646 C22.20815507 180.30826324 12.7692745 182.4820589 3.33017045 184.65489399 C-7.31663105 187.10586269 -17.96277711 189.55967222 -28.60886061 192.01375747 C-41.63575571 195.01662655 -54.66275747 198.01903173 -67.69026184 201.01925659 C-68.60951732 201.23097547 -69.52877279 201.44269435 -70.4758845 201.66082895 C-74.9009132 202.67993554 -79.3260148 203.6987235 -83.75127125 204.71684074 C-91.26980182 206.44699335 -98.78740239 208.1808138 -106.30136108 209.9307251 C-107.53275661 210.21694292 -108.76415213 210.50316074 -110.03286266 210.79805183 C-112.25959437 211.31605291 -114.48592124 211.83579892 -116.71174335 212.35769463 C-117.66076621 212.57828608 -118.60978907 212.79887753 -119.58757019 213.02615356 C-120.40015384 213.21621035 -121.21273748 213.40626713 -122.04994488 213.60208321 C-124 214 -124 214 -126 214 C-125.67 220.6 -125.34 227.2 -125 234 C-122.958125 233.505 -120.91625 233.01 -118.8125 232.5 C-114.77018623 231.52004515 -111.16470277 230.81176485 -107 231 C-106.95875 230.113125 -106.9175 229.22625 -106.875 228.3125 C-105.74240376 224.02481424 -103.62447463 222.26128727 -100 220 C-94.51485723 216.99869546 -89.57714004 216.7020997 -83.4375 216.625 C-82.71715576 216.61106201 -81.99681152 216.59712402 -81.25463867 216.58276367 C-77.38353373 216.61687227 -75.0865577 216.96108258 -71.47265625 218.5859375 C-63.59415001 221.79405815 -53.71328649 217.5827095 -45.78125 215.55273438 C-44.83765625 215.32521484 -43.8940625 215.09769531 -42.921875 214.86328125 C-42.07206055 214.64969971 -41.22224609 214.43611816 -40.34667969 214.21606445 C-36.69484493 213.87983123 -34.78262606 215.36710713 -32.01953125 217.6015625 C-31.29121094 218.26929688 -30.56289063 218.93703125 -29.8125 219.625 C-28.93464844 220.429375 -28.05679687 221.23375 -27.15234375 222.0625 C-21.13673784 227.65331369 -15.16618958 233.29221708 -9.19482422 238.93017578 C-5.78248344 242.14817635 -2.3603532 245.35568904 1.0625 248.5625 C1.71089844 249.17037354 2.35929687 249.77824707 3.02734375 250.40454102 C6.46478637 253.6267172 9.90485619 256.84604851 13.34765625 260.0625 C14.0636499 260.7320874 14.77964355 261.4016748 15.51733398 262.09155273 C16.87671893 263.36275795 18.23685237 264.63316345 19.59790039 265.90258789 C20.21785889 266.48258545 20.83781738 267.06258301 21.4765625 267.66015625 C22.01361816 268.16168213 22.55067383 268.66320801 23.10400391 269.17993164 C23.72968262 269.7805542 24.35536133 270.38117676 25 271 C26.0055896 271.8454538 27.0111792 272.69090759 28.04724121 273.5619812 C31.77791183 277.32442964 31.98044207 280.69850182 32.14013672 285.82836914 C32.18978073 286.69593842 32.23942474 287.56350769 32.29057312 288.45736694 C32.44733042 291.3159502 32.56379511 294.17464888 32.6796875 297.03515625 C32.78083725 299.03580168 32.88440168 301.03632635 32.99026489 303.03672791 C33.26204272 308.30295553 33.49925745 313.57020732 33.72979736 318.83837891 C33.96950657 324.16095111 34.24486253 329.4816693 34.515625 334.80273438 C34.90606467 342.62300091 35.28833957 350.44358418 35.63623047 358.26586914 C35.6922216 359.45799767 35.6922216 359.45799767 35.74934387 360.67420959 C36.04139504 367.44990248 36.03466745 374.21890925 36 381 C16.92148194 385.43972822 -2.15848462 389.87317792 -21.24019909 394.29914856 C-30.10003777 396.35432719 -38.95938979 398.41156123 -47.81762695 400.47363281 C-55.53803754 402.27082906 -63.25933157 404.06417044 -70.98171312 405.85287952 C-75.07098898 406.80020666 -79.15979501 407.7494642 -83.24754906 408.70333862 C-87.09509186 409.60109578 -90.94379498 410.49369367 -94.7934494 411.38235092 C-96.20600991 411.70938375 -97.6181363 412.03829826 -99.02978706 412.36923599 C-100.95802114 412.82098073 -102.88799263 413.2652902 -104.81803894 413.70922852 C-105.89745852 413.95995621 -106.97687811 414.2106839 -108.08900738 414.4690094 C-110.8056907 414.96455628 -113.24730297 415.10506531 -116 415 C-115.8453103 415.66659323 -115.69062059 416.33318645 -115.53124332 417.01997948 C-114.89875828 420.56791755 -114.68197612 424.08809076 -114.50010681 427.68032837 C-114.45841686 428.44610809 -114.41672691 429.21188781 -114.37377363 430.00087297 C-114.23521236 432.56242034 -114.10186809 435.12421224 -113.96850586 437.68603516 C-113.87014892 439.52426291 -113.77147255 441.36247359 -113.67250061 443.20066833 C-113.40480041 448.18991217 -113.14163334 453.17938595 -112.87931514 458.16891527 C-112.60423725 463.38735181 -112.32514774 468.60557382 -112.04652405 473.82382202 C-111.57930244 482.5848951 -111.11476895 491.34610726 -110.65209961 500.10742188 C-109.99915609 512.47168532 -109.34106943 524.83567123 -108.68210018 537.19961476 C-108.2262643 545.7560626 -107.77171225 554.31257872 -107.31736684 562.86910582 C-107.20707312 564.94598469 -107.09673708 567.02286132 -106.98635936 569.09973574 C-106.67184656 575.01813097 -106.3581234 580.93656691 -106.04572105 586.85507393 C-105.95085276 588.65022135 -105.85571614 590.44535462 -105.76029587 592.24047279 C-105.63042218 594.68482284 -105.50153089 597.1292227 -105.37290955 599.57363892 C-105.33468218 600.28909712 -105.29645482 601.00455533 -105.25706905 601.74169409 C-105.11285639 604.49925374 -105 607.23799686 -105 610 C-115.66245684 612.91829057 -126.3665234 615.54991099 -137.13720703 618.03417969 C-138.79635653 618.41880245 -140.45545852 618.80363016 -142.11451721 619.18864441 C-146.56986576 620.22183305 -151.02595501 621.25178978 -155.48226786 622.28081036 C-158.2707154 622.92485517 -161.05899786 623.56960979 -163.84722519 624.21460724 C-173.58472128 626.46714109 -183.32283204 628.71699526 -193.06152344 630.96435547 C-202.12818646 633.05671114 -211.19344276 635.15508427 -220.25808251 637.25618625 C-228.06217077 639.06482031 -235.8672243 640.86924568 -243.67304313 642.67039609 C-248.32653291 643.74424132 -252.9796113 644.8197959 -257.63171768 645.89962006 C-261.99571236 646.91242132 -266.36088263 647.91998749 -270.72701836 648.92351723 C-272.32825597 649.29249097 -273.92906322 649.66333807 -275.52940178 650.03619194 C-277.71305911 650.54464353 -279.89816634 651.04632082 -282.08377075 651.54632568 C-283.30594362 651.82872982 -284.52811649 652.11113396 -285.78732491 652.40209579 C-292.92597278 653.73065454 -292.92597278 653.73065454 -295.72583008 651.82592773 C-296.23525146 651.28395752 -296.74467285 650.7419873 -297.26953125 650.18359375 C-297.84429199 649.58756348 -298.41905273 648.9915332 -299.01123047 648.37744141 C-299.60564941 647.73726074 -300.20006836 647.09708008 -300.8125 646.4375 C-302.05933331 645.14013253 -303.30801553 643.84453926 -304.55859375 642.55078125 C-305.15397949 641.93025879 -305.74936523 641.30973633 -306.36279297 640.67041016 C-308.84438478 638.13849081 -311.50816972 635.85903925 -314.2109375 633.5703125 C-316.94364055 631.17173908 -319.45005228 628.55854065 -322 625.96875 C-323.93891002 624.06013545 -325.93699551 622.27289448 -328 620.5 C-331.51141648 617.48237647 -334.75307402 614.26640919 -338 610.96875 C-340.55657781 608.45211872 -343.2589427 606.13581839 -345.98046875 603.80078125 C-348.86532664 601.22840313 -351.55005797 598.4746866 -354.23828125 595.69921875 C-356.09309306 593.80910864 -356.09309306 593.80910864 -359 592 C-360.34247697 586.82370622 -360.34633799 581.32913216 -360.62483215 576.00434875 C-360.68003405 575.00014411 -360.73523594 573.99593946 -360.79211062 572.96130437 C-360.97634851 569.5945676 -361.15576835 566.22759152 -361.33520508 562.8605957 C-361.46650973 560.44267265 -361.59810381 558.02476531 -361.72996521 555.60687256 C-362.05127194 549.70047351 -362.36942098 543.79390935 -362.68609313 537.88726047 C-363.05932295 530.92791568 -363.43600066 523.96875871 -363.81274422 517.0096034 C-364.49038265 504.48987129 -365.1646536 491.96996 -365.8371582 479.44995117 C-366.47925702 467.49602501 -367.12399789 455.54224538 -367.77172852 443.58862305 C-373.90821579 330.33102672 -373.90821579 330.33102672 -376.41577339 277.03071785 C-377.55812891 252.74905977 -378.80203187 228.47477975 -380.140625 204.203125 C-380.18466516 203.4043367 -380.22870533 202.6055484 -380.27408004 201.78255439 C-380.83966428 191.53107648 -381.41055105 181.27989653 -381.9831543 171.02880859 C-382.66208486 158.87331314 -383.33813317 146.71765793 -384.0104177 134.56179309 C-384.25942735 130.06184004 -384.51040373 125.56200276 -384.76308489 121.06225443 C-384.88013923 118.97293817 -384.99632225 116.88357562 -385.11212158 114.79418945 C-385.25218377 112.2674754 -385.39362415 109.74083719 -385.53674316 107.21429443 C-385.83465736 101.80074004 -386.08435842 96.42190101 -386 91 C-375.16449919 88.011607 -364.27054968 85.36469825 -353.31567383 82.85302734 C-350.64514635 82.24028207 -347.97585883 81.62232736 -345.30664062 81.00390625 C-343.6042368 80.61167465 -341.90176541 80.21973612 -340.19921875 79.828125 C-339.40351974 79.6438092 -338.60782074 79.45949341 -337.78800964 79.26959229 C-332.23042865 78 -332.23042865 78 -330 78 C-329.979375 76.96875 -329.95875 75.9375 -329.9375 74.875 C-328.86670837 70.44906125 -327.80711174 68.98037715 -324.26953125 66.29296875 C-315.90687925 61.52870401 -306.27612216 61.13257014 -297 63 C-294.89734992 63.92531005 -292.98622374 64.98632786 -291.00808716 66.14756775 C-284.92393263 68.73028908 -275.96719892 65.19875471 -269.8203125 63.71484375 C-268.41844193 63.3840255 -268.41844193 63.3840255 -266.98825073 63.04652405 C-264.03262066 62.34852055 -261.07870524 61.64360056 -258.125 60.9375 C-255.14971516 60.2285379 -252.17408726 59.5211512 -249.19747925 58.81776428 C-247.35253133 58.38159676 -245.50835993 57.94212851 -243.66506958 57.49900818 C-242.41764481 57.20353844 -242.41764481 57.20353844 -241.14501953 56.90209961 C-240.41493683 56.72746689 -239.68485413 56.55283417 -238.93264771 56.37290955 C-237 56 -237 56 -234 56 C-233.979375 54.96875 -233.95875 53.9375 -233.9375 52.875 C-232.86173805 48.42851728 -231.75490117 46.99914557 -228.21875 44.2890625 C-220.74982059 39.94971971 -211.69907302 38.70210892 -203.32421875 40.609375 C-199.43041828 41.71383939 -196.38981838 42.74012108 -193 45 C-186.77707888 44.59253663 -180.79304341 43.13898875 -174.734375 41.71484375 C-173.7785553 41.49429825 -172.8227356 41.27375275 -171.83795166 41.04652405 C-167.77759234 40.10960582 -163.71940195 39.16345371 -159.66113281 38.2175293 C-156.68635675 37.5255829 -153.71042073 36.83880508 -150.734375 36.15234375 C-149.81767029 35.93674301 -148.90096558 35.72114227 -147.95648193 35.49900818 C-146.67429779 35.20353844 -146.67429779 35.20353844 -145.36621094 34.90209961 C-144.24324615 34.64015053 -144.24324615 34.64015053 -143.09759521 34.37290955 C-141 34 -141 34 -137 34 C-137.103125 33.13375 -137.20625 32.2675 -137.3125 31.375 C-136.98426714 27.83008513 -136.23746197 25.98638036 -133.78515625 23.390625 C-125.88737733 17.23830707 -115.57119502 16.91188401 -106 18 C-102.74517523 18.99428209 -99.95635221 20.34204572 -97 22 C-93.57438746 23.14187085 -92.34227454 22.82373034 -88.88598633 22.01196289 C-87.84513382 21.77163834 -86.80428131 21.53131378 -85.73188782 21.28370667 C-84.60993515 21.01606003 -83.48798248 20.74841339 -82.33203125 20.47265625 C-81.18208176 20.20488876 -80.03213226 19.93712128 -78.84733582 19.66123962 C-75.1672533 18.80250112 -71.48990227 17.93263711 -67.8125 17.0625 C-65.32113519 16.47908424 -62.82960068 15.89639264 -60.33789062 15.31445312 C-54.22326496 13.88470561 -48.11084638 12.44581004 -42 11 C-41.72285156 9.90171875 -41.44570313 8.8034375 -41.16015625 7.671875 C-39.52439158 2.49470735 -36.74019582 0.42742418 -32.1328125 -1.97265625 C-21.68146854 -6.21235238 -9.84600895 -5.16138153 0 0 Z " transform="translate(532,72)" style="fill: #070503;"/><path d="M0 0 C0.52930535 9.12035878 1.05128481 18.24110186 1.56460571 27.36237431 C1.80332828 31.60043001 2.04431813 35.83832817 2.29101562 40.07592773 C3.37541674 58.73090822 4.35553264 77.30367425 4 96 C-8.36744551 99.32295632 -20.76330295 102.41019465 -33.25 105.25 C-34.94082949 105.63704543 -36.63158285 106.02442359 -38.32226562 106.41210938 C-41.8154658 107.21285985 -45.30898051 108.01221584 -48.80273438 108.81054688 C-56.23203392 110.50932598 -63.65725916 112.22572534 -71.0826416 113.94152832 C-75.13824518 114.87847658 -79.19413774 115.81417225 -83.25 116.75 C-84.87500137 117.12499406 -86.50000137 117.49999406 -88.125 117.875 C-104.375 121.625 -120.625 125.375 -136.875 129.125 C-137.63470929 129.30031765 -138.39441857 129.47563531 -139.17714936 129.65626562 C-140.7962867 130.02991246 -142.41542423 130.40355844 -144.03456205 130.7772032 C-148.04965319 131.70375808 -152.06474111 132.6303269 -156.07981968 133.55693626 C-164.04929689 135.39612994 -172.01882712 137.23509307 -179.98851013 139.07339478 C-201.01832873 143.92445162 -222.04598416 148.78479827 -243.07218522 153.6515094 C-249.55751956 155.15258951 -256.04294742 156.6532651 -262.52842712 158.15371704 C-263.48683425 158.37545039 -264.44524139 158.59718373 -265.43269116 158.82563627 C-269.35186583 159.73235386 -273.27104333 160.63905921 -277.19022191 161.54575992 C-288.18449282 164.08929921 -299.17867353 166.63322701 -310.17260742 169.17822266 C-319.02360985 171.22714615 -327.87479821 173.27526431 -336.72620291 175.32244933 C-341.37524886 176.39772883 -346.02420373 177.47339842 -350.67292976 178.55006027 C-355.02255484 179.55744116 -359.37242734 180.56374669 -363.72248459 181.56925964 C-365.30509777 181.93527376 -366.88762344 182.30166651 -368.4700489 182.66849136 C-395.78656702 189 -395.78656702 189 -400 189 C-402.13840297 157.01394835 -403.80469008 125.03516434 -405 93 C-338.62763577 77.40576688 -272.18547268 62.11503101 -205.74158311 46.82914889 C-197.42141396 44.91499762 -189.10131874 43.00052512 -180.78125 41.0859375 C-179.87525102 40.8774624 -178.96925204 40.66898731 -178.03579855 40.45419478 C-142.03596758 32.17023351 -106.04706581 23.83945302 -70.06200898 15.49157238 C-59.06564916 12.9406932 -48.06779193 10.39642484 -37.06767273 7.86179543 C-31.66920504 6.61766496 -26.27272544 5.36569883 -20.87890625 4.1015625 C-19.80318359 3.85019531 -18.72746094 3.59882813 -17.61914062 3.33984375 C-15.49099725 2.84214377 -13.36343483 2.34195584 -11.23632812 1.83984375 C-10.19025391 1.59621094 -9.14417969 1.35257813 -8.06640625 1.1015625 C-7.15834229 0.88838379 -6.25027832 0.67520508 -5.31469727 0.45556641 C-3 0 -3 0 0 0 Z " transform="translate(622,135)" style="fill: #A3CD5B;"/><path d="M0 0 C0.52990596 8.84227331 1.05189895 17.68497197 1.56460571 26.52825928 C1.80307283 30.63739392 2.04396439 34.74635228 2.29101562 38.85498047 C3.41566753 57.58887558 4.33432972 76.22181434 4 95 C0.35617673 96.92334333 -3.23656565 97.85278443 -7.24609375 98.69921875 C-7.96019913 98.85481766 -8.6743045 99.01041656 -9.41004944 99.17073059 C-10.94818831 99.50563915 -12.48681767 99.83830136 -14.02587891 100.16894531 C-18.13323482 101.05212247 -22.2365956 101.95342806 -26.33984375 102.85546875 C-27.16700897 103.03709564 -27.99417419 103.21872253 -28.84640503 103.40585327 C-36.08975526 105.0038999 -43.29702523 106.72832328 -50.5 108.5 C-62.07250458 111.33896751 -73.68479388 113.95280959 -85.32177734 116.51025391 C-95.40995897 118.72961131 -105.46720653 121.03955009 -115.5 123.5 C-127.07272978 126.33810506 -138.68477077 128.95280451 -150.32177734 131.51025391 C-160.40995897 133.72961131 -170.46720653 136.03955009 -180.5 138.5 C-192.07272978 141.33810506 -203.68477077 143.95280451 -215.32177734 146.51025391 C-225.40996335 148.72961227 -235.46716103 151.03972454 -245.5 153.5 C-257.88822439 156.53603143 -270.32104744 159.33273197 -282.77734375 162.07226562 C-293.28468613 164.38462464 -303.7710117 166.77117471 -314.23510742 169.27368164 C-315.20939697 169.5030542 -316.18368652 169.73242676 -317.1875 169.96875 C-318.02667969 170.16919922 -318.86585938 170.36964844 -319.73046875 170.57617188 C-322 171 -322 171 -326 171 C-327.42500595 168.14998809 -327.30289044 165.5718061 -327.48071289 162.38916016 C-327.5198732 161.70898331 -327.55903351 161.02880646 -327.59938049 160.32801819 C-327.72835462 158.06526323 -327.85073389 155.80220764 -327.97265625 153.5390625 C-328.06067885 151.95314278 -328.14893434 150.36723598 -328.2374115 148.78134155 C-328.42270937 145.44064559 -328.60467138 142.09978784 -328.78442383 138.75878906 C-329.01195022 134.5358631 -329.24833616 130.31348936 -329.4871769 126.09119034 C-331.37129084 92.63755593 -331.37129084 92.63755593 -331 76 C-323.00125589 73.12342285 -314.83268729 71.22518505 -306.55859375 69.34008789 C-304.99752201 68.98098645 -303.43654059 68.62149214 -301.87564182 68.2616396 C-297.624188 67.28265082 -293.37150568 66.30909775 -289.11859822 65.33644629 C-284.57301879 64.29581624 -280.02863206 63.25000289 -275.4841156 62.20474243 C-267.70323893 60.41578794 -259.92167368 58.62985693 -252.13961792 56.84603882 C-239.99055935 54.0611339 -227.84291526 51.27009248 -215.69555664 48.4777832 C-212.64455728 47.77649092 -209.59355533 47.07520994 -206.54255241 46.37393314 C-204.50843352 45.90638835 -202.47431634 45.43883613 -200.44020087 44.97127646 C-193.30818465 43.33197918 -186.17598464 41.6934831 -179.04371643 40.05528259 C-145.10934071 32.26046917 -111.18350821 24.42911938 -77.26318359 16.57340622 C-73.45587068 15.69175406 -69.64848139 14.81043253 -65.84106445 13.92922974 C-58.85095445 12.31140976 -51.86099239 10.69295168 -44.87109375 9.07421875 C-43.8536804 8.83866901 -42.83626705 8.60311928 -41.78802299 8.36043167 C-39.84884648 7.91141295 -37.90971804 7.46218654 -35.97064304 7.01272964 C-34.16442741 6.59428021 -32.35803903 6.17657555 -30.55145931 5.75970078 C-26.38957831 4.79723844 -22.23330148 3.81773614 -18.08499146 2.79824829 C-17.31035333 2.60976476 -16.5357152 2.42128122 -15.73760319 2.22708607 C-14.30924375 1.87842838 -12.88217606 1.52440872 -11.45684719 1.16356182 C-7.55711504 0.21565601 -4.00965864 -0.16664301 0 0 Z " transform="translate(559,354)" style="fill: #C94326;"/><path d="M0 0 C4.19673567 3.72850483 8.20235653 7.58613359 12.140625 11.5859375 C14.07953502 13.49455205 16.07762051 15.28179302 18.140625 17.0546875 C21.65204148 20.07231103 24.89369902 23.28827831 28.140625 26.5859375 C30.07953502 28.49455205 32.07762051 30.28179302 34.140625 32.0546875 C37.64643597 35.0674938 40.8834548 38.27771934 44.125 41.5703125 C46.77255449 44.17681963 49.5649558 46.59116628 52.375 49.01953125 C54.40214247 50.78206884 56.3545691 52.54537461 58.140625 54.5546875 C58.140625 55.2146875 58.140625 55.8746875 58.140625 56.5546875 C43.26243945 60.22533686 28.3725242 63.77097742 13.390625 66.9921875 C1.73495207 69.49914483 -9.85467965 72.21491724 -21.43103027 75.06466675 C-32.2023256 77.71243302 -43.0047199 80.15338119 -53.84912109 82.48193359 C-64.06118099 84.67864111 -74.21671424 87.05784875 -84.359375 89.5546875 C-95.16161362 92.21389583 -105.98263949 94.71875887 -116.859375 97.0546875 C-127.85853823 99.41808113 -138.80692047 101.9414735 -149.734375 104.6171875 C-150.43037811 104.78751495 -151.12638123 104.95784241 -151.84347534 105.1333313 C-153.23425839 105.47371775 -154.62504107 105.81410571 -156.01582336 106.15449524 C-156.69251572 106.32007431 -157.36920807 106.48565338 -158.06640625 106.65625 C-159.07062874 106.90202034 -159.07062874 106.90202034 -160.09513855 107.15275574 C-173.8043393 110.50121988 -187.57250932 113.59834566 -201.34375 116.6796875 C-204.78650441 117.45031518 -208.2292061 118.22117792 -211.671875 118.9921875 C-212.53745026 119.18592957 -213.40302551 119.37967163 -214.29483032 119.57928467 C-226.24387918 122.25649374 -238.1566846 125.04494984 -250.05004883 127.96069336 C-260.38737803 130.47850978 -270.76828093 132.77620797 -281.15908813 135.06018066 C-293.98521176 137.88225298 -306.75624219 140.88560017 -319.51171875 144.01171875 C-325.94702261 145.58665371 -332.39698427 147.09489021 -338.859375 148.5546875 C-339.58261963 148.74506592 -340.30586426 148.93544434 -341.05102539 149.1315918 C-342.984375 149.4296875 -342.984375 149.4296875 -346.859375 148.5546875 C-349.8761655 146.03179633 -352.53501827 143.33029866 -355.19140625 140.4375 C-357.38915112 138.06277714 -359.58121633 135.95016045 -362.046875 133.8671875 C-365.5021006 130.91863449 -368.67385043 127.75873589 -371.859375 124.5234375 C-373.79828502 122.61482295 -375.79637051 120.82758198 -377.859375 119.0546875 C-381.36939011 116.03826827 -384.60988776 112.82373618 -387.85546875 109.52734375 C-390.43535716 106.98768752 -393.16020552 104.64590383 -395.90625 102.2890625 C-398.49891456 99.98677637 -400.91159988 97.53135668 -403.31640625 95.03515625 C-404.99644872 93.33633245 -404.99644872 93.33633245 -407.859375 91.5546875 C-407.859375 90.8946875 -407.859375 90.2346875 -407.859375 89.5546875 C-398.376044 86.87606243 -388.81153007 84.54503462 -379.22076416 82.28738403 C-377.85675991 81.96603911 -376.49310976 81.64318734 -375.12982178 81.31881714 C-373.18270531 80.85630378 -371.23395316 80.40069337 -369.28515625 79.9453125 C-368.14473877 79.67750977 -367.00432129 79.40970703 -365.8293457 79.13378906 C-362.859375 78.5546875 -362.859375 78.5546875 -358.859375 78.5546875 C-358.82199219 79.65167969 -358.78460938 80.74867188 -358.74609375 81.87890625 C-358.68040847 83.33336607 -358.61396201 84.78779166 -358.546875 86.2421875 C-358.51303711 87.3240332 -358.51303711 87.3240332 -358.47851562 88.42773438 C-358.25417852 92.89408228 -357.71248662 95.92036675 -354.859375 99.5546875 C-350.13844364 102.36715725 -346.0271463 103.70435595 -340.56640625 103.6171875 C-339.3743457 103.60558594 -339.3743457 103.60558594 -338.15820312 103.59375 C-336.9274707 103.57441406 -336.9274707 103.57441406 -335.671875 103.5546875 C-332.72877235 103.50909335 -329.8036844 103.5074368 -326.859375 103.5546875 C-325.23481342 105.17924908 -325.59855758 107.08030177 -325.46484375 109.32421875 C-325.39587891 110.29552734 -325.32691406 111.26683594 -325.25585938 112.26757812 C-325.11737408 114.32156093 -324.98963416 116.37629857 -324.87304688 118.43164062 C-324.54108401 124.16921769 -324.54108401 124.16921769 -321.9609375 129.14453125 C-314.25142625 134.31764196 -307.03624353 134.41119523 -297.859375 133.5546875 C-292.03589259 132.20119636 -286.45919331 130.57807032 -282.859375 125.5546875 C-282.53654038 122.53958985 -282.43183421 119.92782267 -282.546875 116.9296875 C-282.576604 115.72179565 -282.576604 115.72179565 -282.60693359 114.48950195 C-282.65222399 112.8955048 -282.70760865 111.30175696 -282.77392578 109.70849609 C-282.84508987 107.91475432 -282.87152453 106.11930733 -282.88671875 104.32421875 C-283.05499413 99.83246212 -283.05499413 99.83246212 -285.05078125 95.91796875 C-291.12871114 90.379594 -298.01323605 90.27969804 -305.734375 90.4296875 C-308.745625 90.4709375 -311.756875 90.5121875 -314.859375 90.5546875 C-315.189375 83.2946875 -315.519375 76.0346875 -315.859375 68.5546875 C-305.59688304 65.75582606 -295.3112517 63.1925982 -284.93896484 60.83496094 C-282.56894094 60.29548369 -280.200473 59.74950185 -277.83203125 59.203125 C-276.31519213 58.85638581 -274.79826826 58.51001712 -273.28125 58.1640625 C-272.5782074 58.00162048 -271.87516479 57.83917847 -271.15081787 57.67181396 C-268.31350888 57.03108606 -265.77944241 56.5546875 -262.859375 56.5546875 C-262.72660156 57.81925781 -262.59382812 59.08382812 -262.45703125 60.38671875 C-262.27882037 62.04689375 -262.10042537 63.70704898 -261.921875 65.3671875 C-261.79135742 66.61725586 -261.79135742 66.61725586 -261.65820312 67.89257812 C-261.57119141 68.69501953 -261.48417969 69.49746094 -261.39453125 70.32421875 C-261.27670288 71.43180542 -261.27670288 71.43180542 -261.15649414 72.56176758 C-260.88785504 74.75738128 -260.88785504 74.75738128 -259.859375 77.5546875 C-257.66004565 78.71982363 -257.66004565 78.71982363 -254.859375 79.5546875 C-253.869375 79.9259375 -252.879375 80.2971875 -251.859375 80.6796875 C-244.90858775 82.62407072 -236.83008493 82.17427624 -229.859375 80.5546875 C-228.97847516 83.19738703 -228.70542512 84.88849375 -228.61328125 87.609375 C-228.56397461 88.77919922 -228.56397461 88.77919922 -228.51367188 89.97265625 C-228.45277073 91.60273373 -228.39544345 93.23294889 -228.34179688 94.86328125 C-228.10099193 100.95276666 -228.10099193 100.95276666 -225.859375 106.5546875 C-224.05612321 107.95416907 -224.05612321 107.95416907 -221.921875 108.8046875 C-221.23222656 109.11921875 -220.54257812 109.43375 -219.83203125 109.7578125 C-210.83461282 113.39241321 -201.72448045 111.80793721 -192.859375 108.5546875 C-191.869375 108.2659375 -190.879375 107.9771875 -189.859375 107.6796875 C-187.0720527 106.1118187 -186.82271846 104.56354437 -185.859375 101.5546875 C-185.50754884 97.55341034 -185.72596514 93.56618394 -185.859375 89.5546875 C-185.86582031 88.3275 -185.87226563 87.1003125 -185.87890625 85.8359375 C-185.89953771 79.51024541 -185.89953771 79.51024541 -187.9453125 73.6640625 C-193.97569774 68.13343295 -202.39983825 67.21318462 -210.18359375 67.3515625 C-213.11808126 67.57432652 -215.96498707 68.02920565 -218.859375 68.5546875 C-219.03122698 66.59680239 -219.19653071 64.63834239 -219.359375 62.6796875 C-219.4521875 61.58914062 -219.545 60.49859375 -219.640625 59.375 C-219.90473358 54.76253239 -219.90128616 50.1730646 -219.859375 45.5546875 C-201.859375 41.5546875 -183.859375 37.5546875 -165.859375 33.5546875 C-165.77308838 35.32356323 -165.77308838 35.32356323 -165.68505859 37.12817383 C-165.65047546 37.83132721 -165.61589233 38.53448059 -165.58026123 39.25894165 C-165.50973802 40.71759593 -165.44415505 42.17649117 -165.38134766 43.63549805 C-165.15947538 47.60560632 -164.85637045 51.02254245 -162.859375 54.5546875 C-155.31334743 60.21837266 -145.77521841 60.32950299 -136.796875 59.0546875 C-135.3428125 58.8071875 -135.3428125 58.8071875 -133.859375 58.5546875 C-132.72107319 60.83129112 -132.70740616 62.19995597 -132.6484375 64.73046875 C-132.62007813 65.55869141 -132.59171875 66.38691406 -132.5625 67.24023438 C-132.5107713 68.97961191 -132.46639682 70.71922505 -132.4296875 72.45898438 C-132.25203869 77.23699729 -132.06156828 80.7456859 -128.859375 84.5546875 C-126.9687327 85.93594255 -126.9687327 85.93594255 -124.859375 86.8046875 C-124.17875 87.11921875 -123.498125 87.43375 -122.796875 87.7578125 C-115.06800496 90.93662195 -106.90968545 90.16048399 -99.09375 87.546875 C-95.18856354 85.81275374 -91.81285068 83.46163886 -89.859375 79.5546875 C-89.65016051 73.88743613 -89.74406805 68.22371973 -89.859375 62.5546875 C-89.87613281 61.58144531 -89.89289063 60.60820312 -89.91015625 59.60546875 C-90.12921361 55.91904627 -90.73963915 53.72680778 -92.859375 50.6796875 C-100.29687557 45.41145793 -107.92835358 44.90606583 -116.859375 45.5546875 C-118.53206929 45.8563209 -120.20161199 46.17957324 -121.859375 46.5546875 C-122.61663906 41.06452304 -122.91663347 35.7650561 -122.890625 30.21875 C-122.88611328 28.96787598 -122.88160156 27.71700195 -122.87695312 26.42822266 C-122.86825195 25.00582275 -122.86825195 25.00582275 -122.859375 23.5546875 C-112.50666763 21.03772388 -102.15254684 18.52667027 -91.79656982 16.02319336 C-90.0896767 15.61038541 -88.38295933 15.1968509 -86.67626953 14.78320312 C-84.27983149 14.20335654 -81.88243745 13.62777115 -79.484375 13.0546875 C-78.23914063 12.755625 -76.99390625 12.4565625 -75.7109375 12.1484375 C-72.859375 11.5546875 -72.859375 11.5546875 -69.859375 11.5546875 C-69.82199219 12.65167969 -69.78460938 13.74867187 -69.74609375 14.87890625 C-69.68040847 16.33336607 -69.61396201 17.78779166 -69.546875 19.2421875 C-69.52431641 19.96341797 -69.50175781 20.68464844 -69.47851562 21.42773438 C-69.25453568 25.88697151 -68.74546787 28.95204744 -65.859375 32.5546875 C-64.03918718 33.9368936 -64.03918718 33.9368936 -61.984375 34.8046875 C-61.32695312 35.11921875 -60.66953125 35.43375 -59.9921875 35.7578125 C-54.92747558 37.65012245 -50.37543917 37.56080959 -45.046875 37.1171875 C-44.35400391 37.06498047 -43.66113281 37.01277344 -42.94726562 36.95898438 C-41.25083063 36.83028931 -39.55502637 36.69332566 -37.859375 36.5546875 C-36.68428451 38.90486847 -36.64620616 40.54760148 -36.5 43.16796875 C-36.43554688 44.08642578 -36.37109375 45.00488281 -36.3046875 45.95117188 C-36.17532657 47.88253051 -36.06054241 49.81492523 -35.9609375 51.74804688 C-35.61649332 56.31193224 -35.37002895 58.869728 -32.58203125 62.609375 C-25.87226798 67.40343829 -17.91475887 68.51642494 -9.8671875 67.23828125 C-3.72619993 65.91211467 2.57486812 63.90332283 6.140625 58.5546875 C6.31245635 55.66267845 6.37651416 52.88087366 6.328125 49.9921875 C6.3180542 49.18313965 6.3079834 48.3740918 6.29760742 47.54052734 C6.25954281 45.21134691 6.20233203 42.88334352 6.140625 40.5546875 C6.12257813 39.47574219 6.10453125 38.39679688 6.0859375 37.28515625 C5.87873999 33.22042868 5.73974166 31.24190955 3.015625 28.1171875 C2.066875 27.6015625 1.118125 27.0859375 0.140625 26.5546875 C-0.849375 25.9771875 -1.839375 25.3996875 -2.859375 24.8046875 C-9.91203005 21.9526248 -18.57850024 23.1970507 -25.859375 24.5546875 C-26.91996988 16.86537465 -26.95865582 9.30962264 -26.859375 1.5546875 C-24.48529908 0.90529014 -22.1102111 0.26008697 -19.734375 -0.3828125 C-19.06921875 -0.56521484 -18.4040625 -0.74761719 -17.71875 -0.93554688 C-5.45664193 -4.24150738 -5.45664193 -4.24150738 0 0 Z " transform="translate(561.859375,75.4453125)" style="fill: #A1CA5A;"/><path d="M0 0 C0.9241557 4.04274236 1.25377542 7.96861216 1.48071289 12.10668945 C1.5198732 12.80348312 1.55903351 13.50027679 1.59938049 14.21818542 C1.72749755 16.51636404 1.8502773 18.81479044 1.97265625 21.11328125 C2.06071567 22.72691379 2.14897071 24.34053566 2.2374115 25.95414734 C2.42215937 29.34080687 2.60420836 32.72759832 2.78442383 36.11450195 C3.01323584 40.40989545 3.24913255 44.70486412 3.48720646 48.999753 C3.67134976 52.33806434 3.85134526 55.6765903 4.03021049 59.01518822 C4.11541227 60.59574633 4.20189094 62.17623624 4.28978157 63.75664711 C4.41363804 65.9942171 4.53176986 68.23202834 4.64868164 70.4699707 C4.71672501 71.73396194 4.78476837 72.99795319 4.85487366 74.30024719 C5.13678113 81.19370704 5.02662209 88.10229674 5 95 C-17.61647861 100.2206563 -40.23410045 105.43633262 -62.85309982 110.64605713 C-73.35508895 113.06505209 -83.85669553 115.48568496 -94.35742188 117.91015625 C-103.50816759 120.02293148 -112.65961129 122.13265158 -121.81191182 124.23868179 C-126.65945983 125.35426104 -131.50664067 126.4713834 -136.3529892 127.59216309 C-140.91236994 128.64652706 -145.4726711 129.69681064 -150.03371811 130.74394226 C-151.70945123 131.12942172 -153.38483948 131.51640383 -155.05985641 131.90498352 C-157.34342206 132.43450325 -159.6281568 132.95864682 -161.91326904 133.48144531 C-163.1927177 133.77641907 -164.47216637 134.07139282 -165.7903862 134.37530518 C-169 135 -169 135 -173 135 C-174.32519208 116.66857269 -175.40742875 98.32499871 -176.41952515 79.97390747 C-176.55599481 77.50061025 -176.69337801 75.02736327 -176.83169556 72.5541687 C-177.02879205 69.02064363 -177.22200717 65.48692726 -177.4140625 61.953125 C-177.47334427 60.89672318 -177.53262604 59.84032135 -177.59370422 58.75190735 C-177.92807717 52.49406079 -178.07304318 46.26656398 -178 40 C-177.05343536 39.78417267 -176.10687073 39.56834534 -175.13162231 39.34597778 C-163.12868988 36.60882465 -151.12658757 33.86804372 -139.125 31.125 C-138.16792397 30.90627228 -137.21084793 30.68754456 -136.22476959 30.46218872 C-104.0201237 23.10854364 -104.0201237 23.10854364 -71.875 15.5 C-57.77058232 12.10298082 -43.64057385 8.82905508 -29.48883057 5.63452148 C-27.26826223 5.13313792 -25.04799955 4.63039846 -22.82806396 4.1262207 C-19.76398708 3.43114407 -16.69864872 2.74195692 -13.6328125 2.0546875 C-12.71526184 1.84588959 -11.79771118 1.63709167 -10.85235596 1.42196655 C-10.00534119 1.23357208 -9.15832642 1.04517761 -8.28564453 0.85107422 C-7.55072784 0.68582245 -6.81581116 0.52057068 -6.05862427 0.35031128 C-4 0 -4 0 0 0 Z " transform="translate(401,289)" style="fill: #C8D048;"/><path d="M0 0 C0.65357069 11.51771229 1.3056293 23.03550909 1.95575714 34.55341625 C2.25768398 39.90162009 2.56013178 45.2497934 2.86376953 50.59790039 C3.15677094 55.75900313 3.44840469 60.92018149 3.73908997 66.08141518 C3.85023788 68.05060901 3.96187875 70.01977509 4.07402039 71.98891258 C4.23099017 74.74668693 4.38620783 77.50455473 4.54101562 80.26245117 C4.58776932 81.07669052 4.63452301 81.89092987 4.68269348 82.72984314 C4.89217423 86.49282441 5.01985753 90.23185318 5 94 C-5.39627543 96.84028223 -15.82694422 99.42620716 -26.3269043 101.85058594 C-27.89900777 102.21550357 -29.47106343 102.58062721 -31.04307556 102.94593811 C-35.26077668 103.92533962 -39.4792033 104.90157895 -43.69783759 105.87695217 C-47.23008369 106.69388117 -50.76199439 107.51225533 -54.29391891 108.33057332 C-62.61914502 110.25937501 -70.94500127 112.185439 -79.27124023 114.10986328 C-87.85493052 116.09385281 -96.43741883 118.08298152 -105.01936406 120.07450461 C-112.40832581 121.78896781 -119.79806443 123.50005258 -127.18842822 125.208462 C-131.59415747 126.22697231 -135.99956733 127.24681632 -140.40421104 128.2700119 C-144.53449464 129.22933926 -148.6657284 130.18445988 -152.79773903 131.13632011 C-154.3138435 131.48632469 -155.82960184 131.83783243 -157.34498596 132.19094276 C-159.4109783 132.67210713 -161.47814437 133.14785919 -163.54570007 133.62225342 C-164.70242564 133.88990887 -165.85915121 134.15756432 -167.05092907 134.43333054 C-170 135 -170 135 -174 135 C-174.65392769 123.62996375 -175.30601397 112.25982353 -175.95575714 100.88954735 C-176.25752418 95.60974355 -176.55992263 90.32997751 -176.86376953 85.05029297 C-177.15703651 79.95404 -177.44863777 74.8576942 -177.73908997 69.76128006 C-177.85013146 67.81802607 -177.96177061 65.87480613 -178.07402039 63.93162155 C-178.23127326 61.20759487 -178.38639068 58.48345428 -178.54101562 55.75927734 C-178.58776932 54.95798401 -178.63452301 54.15669067 -178.68269348 53.33111572 C-178.91403984 49.21406428 -179.04825786 45.1257905 -179 41 C-178.3567468 40.85184058 -177.7134936 40.70368116 -177.05074787 40.55103207 C-161.251054 36.91180461 -145.45175398 33.27087246 -129.65286732 29.62814236 C-122.01200947 27.86644042 -114.3710291 26.10527357 -106.72973633 24.34545898 C-100.05384555 22.80797808 -93.37820889 21.26939903 -86.70285052 19.72960812 C-83.18262198 18.9176418 -79.66228533 18.10615252 -76.14164162 17.29598808 C-58.41308461 13.21586882 -40.71220782 9.0349813 -23.03523827 4.73698616 C-18.65007679 3.67222517 -14.26272781 2.61662687 -9.875 1.5625 C-8.59367188 1.25441406 -7.31234375 0.94632812 -5.9921875 0.62890625 C-3 0 -3 0 0 0 Z " transform="translate(412,488)" style="fill: #CA2A6A;"/><path d="M0 0 C2.90764676 46.86031113 2.90764676 46.86031113 4.05865479 67.33435059 C4.14389452 68.84976855 4.22978114 70.36515027 4.31634521 71.88049316 C4.43565013 73.97490528 4.55226862 76.06944853 4.66796875 78.1640625 C4.73266357 79.32373535 4.7973584 80.4834082 4.86401367 81.67822266 C5.00502177 85.12266816 5.00889813 88.55305274 5 92 C-17.45225695 97.20031928 -39.90499999 102.39853496 -62.35832405 107.59424496 C-72.78371072 110.00673615 -83.20893706 112.41991615 -93.63378906 114.8347168 C-102.71979664 116.93938723 -111.80610203 119.04276623 -120.89276779 121.1445933 C-125.7043068 122.25759286 -130.51569393 123.3712397 -135.32672501 124.48643303 C-139.85541744 125.53615899 -144.38450624 126.58415714 -148.91390419 127.63083458 C-150.57569265 128.01516963 -152.23733562 128.40013436 -153.89882088 128.78577805 C-156.16906504 129.31261978 -158.43982412 129.8371833 -160.71072388 130.3611908 C-161.98095461 130.65524276 -163.25118534 130.94929472 -164.55990791 131.25225735 C-167.69770931 131.93429372 -170.82802193 132.5043675 -174 133 C-174.52696032 123.3847216 -175.04885881 113.7691848 -175.56460571 104.15329838 C-175.80433716 99.68645537 -176.04569762 95.21971378 -176.29101562 90.75317383 C-176.52847367 86.4285755 -176.76134639 82.10375076 -176.99127197 77.77874565 C-177.07898541 76.14317747 -177.16824688 74.50769142 -177.25921631 72.8723011 C-177.86803835 61.90285182 -178.10987132 50.98620585 -178 40 C-148.62804467 33.13829186 -119.24695806 26.31625037 -89.86046505 19.51708317 C-81.5147379 17.5860071 -73.16952124 15.65277406 -64.82543945 13.71459961 C-57.4585895 12.00342125 -50.09086492 10.29607118 -42.722045 8.59339517 C-38.84561259 7.69755441 -34.9696356 6.79984425 -31.0947094 5.89750862 C-27.47493995 5.05465633 -23.8540196 4.21694513 -20.2321434 3.38319397 C-18.27518004 2.93129987 -16.3194761 2.47396256 -14.36381531 2.01646423 C-13.19707275 1.74891327 -12.0303302 1.4813623 -10.82823181 1.20570374 C-9.31179533 0.85431131 -9.31179533 0.85431131 -7.76472378 0.49582005 C-5.10766359 0.01930817 -2.69212582 -0.09498795 0 0 Z " transform="translate(417,587)" style="fill: #BD94C3;"/><path d="M0 0 C0.66 0.66 1.32 1.32 2 2 C3.98343396 2.80432248 5.9934905 3.45581465 8.02734375 4.12109375 C10.25876207 5.11529003 11.49495608 6.07977155 13 8 C13 8.99 13 9.98 13 11 C13.99 11 14.98 11 16 11 C16.66 17.6 17.32 24.2 18 31 C19.65 30.67 21.3 30.34 23 30 C32.61073587 29.11828111 40.11575666 30.19165668 47.73046875 36.4140625 C50.33342576 39.66575649 49.83381871 43.992657 50 48 C50.03786621 48.70833984 50.07573242 49.41667969 50.11474609 50.14648438 C50.23297684 52.53504477 50.30873692 54.92196899 50.375 57.3125 C50.41326904 58.08924072 50.45153809 58.86598145 50.4909668 59.66625977 C50.55129985 63.86462382 50.40177381 65.48796236 47.72265625 68.90234375 C40.26090638 74.65120986 32.47820109 76.93611863 23 76 C17.36984611 74.83099095 11.86867678 73.47315752 8 69 C5.58585456 62.60251458 5.57293778 55.86799688 5.24609375 49.09765625 C5.34754594 46.13125059 5.34754594 46.13125059 4 45 C1.85105764 45.17335001 -0.29445567 45.38970342 -2.4375 45.625 C-10.4464289 46.24420508 -17.09203302 45.54788204 -23.5625 40.5 C-27.62503385 36.33329861 -27.12486542 32.30545414 -27.0625 26.8125 C-27.05798828 26.06291016 -27.05347656 25.31332031 -27.04882812 24.54101562 C-27.03706354 22.69397617 -27.01912865 20.84697787 -27 19 C-27.81992432 19.24596924 -28.63984863 19.49193848 -29.48461914 19.74536133 C-38.04042527 22.2575477 -46.62636081 24.36600777 -55.34350586 26.23754883 C-57.46134617 26.69262399 -59.57740434 27.15538631 -61.69335938 27.61914062 C-67.79099617 28.94376701 -73.81332475 30.11618925 -80 31 C-79.01 41.89 -79.01 41.89 -78 53 C-76.68 52.67 -75.36 52.34 -74 52 C-65.11289531 51.33121643 -57.45919704 51.93430204 -50 57.0625 C-46.20656857 60.7373867 -46.35014329 64.96182715 -46 70 C-45.95391602 70.6511377 -45.90783203 71.30227539 -45.86035156 71.97314453 C-44.9363563 86.86160837 -44.9363563 86.86160837 -48.5625 91.375 C-55.16607009 97.23099612 -63.54062689 98.36591637 -72.078125 98.28515625 C-77.92586373 97.71445448 -82.99858015 95.6108989 -87.5625 91.9375 C-89.91127747 88.77175645 -90.15430439 85.93425377 -90.31640625 82.11328125 C-90.37924805 80.7065918 -90.37924805 80.7065918 -90.44335938 79.27148438 C-90.48267578 78.29501953 -90.52199219 77.31855469 -90.5625 76.3125 C-90.60568359 75.32443359 -90.64886719 74.33636719 -90.69335938 73.31835938 C-90.79941654 70.87904454 -90.90147714 68.43962887 -91 66 C-92.06605469 66.32355469 -93.13210938 66.64710938 -94.23046875 66.98046875 C-102.12041349 69.11443308 -109.50342898 68.31000431 -117 65 C-120.22333025 62.36871 -121.69005131 60.92984608 -123 57 C-123.07051114 54.26134713 -123.09357765 51.54972412 -123.0625 48.8125 C-123.05798828 48.06291016 -123.05347656 47.31332031 -123.04882812 46.54101562 C-123.03706354 44.69397617 -123.01912865 42.84697787 -123 41 C-123.54296219 41.19032303 -124.08592438 41.38064606 -124.64533997 41.57673645 C-130.10942647 43.4508366 -135.5722505 44.96619215 -141.19921875 46.26171875 C-142.03789993 46.45723831 -142.87658112 46.65275787 -143.74067688 46.85420227 C-145.49725867 47.26219661 -147.25436228 47.66795042 -149.01196289 48.0715332 C-151.69285647 48.68873317 -154.37083274 49.31762446 -157.04882812 49.94726562 C-158.76546087 50.34446003 -160.48225252 50.74096841 -162.19921875 51.13671875 C-162.99309494 51.3241716 -163.78697113 51.51162445 -164.60490417 51.70475769 C-168.82422009 52.66230104 -172.64027174 53.20723372 -177 53 C-176.9278125 53.57105469 -176.855625 54.14210937 -176.78125 54.73046875 C-175.96782223 61.83666412 -175.89918057 68.85302234 -176 76 C-175.11957031 75.67644531 -174.23914063 75.35289062 -173.33203125 75.01953125 C-164.42187006 72.29320995 -156.06535514 73.95592139 -147.921875 78.04296875 C-144.50388632 80.30078647 -143.20580682 82.02765522 -142.34765625 86.08203125 C-142.05342523 89.73775086 -141.98833424 93.33306279 -142 97 C-141.92845703 98.68416016 -141.92845703 98.68416016 -141.85546875 100.40234375 C-141.66958887 105.9718557 -141.60276221 109.36525332 -145 114 C-153.24366959 119.6574203 -162.13110255 121.06340288 -172 120 C-177.16654594 118.51068364 -181.65059031 116.32632084 -185 112 C-185.88512742 109.34461774 -186.16681906 107.58101248 -186.28125 104.83984375 C-186.31863281 104.04642578 -186.35601562 103.25300781 -186.39453125 102.43554688 C-186.46500838 100.76628298 -186.53532011 99.0970121 -186.60546875 97.42773438 C-186.66154297 96.23954102 -186.66154297 96.23954102 -186.71875 95.02734375 C-186.74904297 94.30281006 -186.77933594 93.57827637 -186.81054688 92.83178711 C-186.90107818 90.90382267 -186.90107818 90.90382267 -188 89 C-188.53238281 89.15984375 -189.06476563 89.3196875 -189.61328125 89.484375 C-197.3853045 91.16343731 -206.95536404 91.031403 -214 87 C-216.67990162 84.92882034 -218.69246474 83.29274562 -219.49853516 79.90437317 C-219.71464418 77.48913658 -219.79527653 75.11218214 -219.8125 72.6875 C-219.83763672 71.85154297 -219.86277344 71.01558594 -219.88867188 70.15429688 C-219.9472699 68.10336591 -219.97656493 66.05163407 -220 64 C-221.19898926 64.28721924 -222.39797852 64.57443848 -223.63330078 64.87036133 C-228.14690019 65.95113099 -232.66102223 67.02970422 -237.17529297 68.10766602 C-239.11683905 68.57159943 -241.05824912 69.0361025 -242.99951172 69.5012207 C-253.9743555 72.13031557 -264.94706595 74.71622898 -276 77 C-276.93054199 75.79790894 -276.93054199 75.79790894 -277.87988281 74.5715332 C-279.88872262 72.1349706 -280.87365816 71.23847106 -283.75 70.1875 C-284.8225 69.795625 -285.895 69.40375 -287 69 C-287 68.34 -287 67.68 -287 67 C-283.68545551 67.38541215 -281.44901102 67.68447874 -278.6875 69.625 C-272.3901281 72.84691121 -263.38447484 69.29948868 -256.8203125 67.71484375 C-255.41844193 67.3840255 -255.41844193 67.3840255 -253.98825073 67.04652405 C-251.03262066 66.34852055 -248.07870524 65.64360056 -245.125 64.9375 C-242.14971516 64.2285379 -239.17408726 63.5211512 -236.19747925 62.81776428 C-234.35253133 62.38159676 -232.50835993 61.94212851 -230.66506958 61.49900818 C-229.83345306 61.30202835 -229.00183655 61.10504852 -228.14501953 60.90209961 C-227.41493683 60.72746689 -226.68485413 60.55283417 -225.93264771 60.37290955 C-224 60 -224 60 -221 60 C-220.979375 58.96875 -220.95875 57.9375 -220.9375 56.875 C-219.86173805 52.42851728 -218.75490117 50.99914557 -215.21875 48.2890625 C-207.74982059 43.94971971 -198.69907302 42.70210892 -190.32421875 44.609375 C-186.43041828 45.71383939 -183.38981838 46.74012108 -180 49 C-173.77707888 48.59253663 -167.79304341 47.13898875 -161.734375 45.71484375 C-160.7785553 45.49429825 -159.8227356 45.27375275 -158.83795166 45.04652405 C-154.77759234 44.10960582 -150.71940195 43.16345371 -146.66113281 42.2175293 C-143.68635675 41.5255829 -140.71042073 40.83880508 -137.734375 40.15234375 C-136.81767029 39.93674301 -135.90096558 39.72114227 -134.95648193 39.49900818 C-133.67429779 39.20353844 -133.67429779 39.20353844 -132.36621094 38.90209961 C-131.24324615 38.64015053 -131.24324615 38.64015053 -130.09759521 38.37290955 C-128 38 -128 38 -124 38 C-124.103125 37.13375 -124.20625 36.2675 -124.3125 35.375 C-123.98426714 31.83008513 -123.23746197 29.98638036 -120.78515625 27.390625 C-112.88737733 21.23830707 -102.57119502 20.91188401 -93 22 C-89.74517523 22.99428209 -86.95635221 24.34204572 -84 26 C-80.57438746 27.14187085 -79.34227454 26.82373034 -75.88598633 26.01196289 C-74.84513382 25.77163834 -73.80428131 25.53131378 -72.73188782 25.28370667 C-71.60993515 25.01606003 -70.48798248 24.74841339 -69.33203125 24.47265625 C-68.18208176 24.20488876 -67.03213226 23.93712128 -65.84733582 23.66123962 C-62.1672533 22.80250112 -58.48990227 21.93263711 -54.8125 21.0625 C-52.32113519 20.47908424 -49.82960068 19.89639264 -47.33789062 19.31445312 C-41.22326496 17.88470561 -35.11084638 16.44581004 -29 15 C-28.72285156 13.90171875 -28.44570313 12.8034375 -28.16015625 11.671875 C-26.774464 7.28618235 -24.86233037 5.2675617 -21 3 C-14.37928767 -0.26447004 -7.2931407 -0.8760871 0 0 Z " transform="translate(519,68)" style="fill: #050602;"/><path d="M0 0 C3.25207092 1.41738489 5.31361067 3.12526412 7.75 5.6875 C10.41015854 8.42155183 13.10249898 11.01887216 16 13.5 C19.51141648 16.51762353 22.75307402 19.73359081 26 23.03125 C27.93891002 24.93986455 29.93699551 26.72710552 32 28.5 C35.51141648 31.51762353 38.75307402 34.73359081 42 38.03125 C44.55657781 40.54788128 47.2589427 42.86418161 49.98046875 45.19921875 C52.86532664 47.77159687 55.55005797 50.5253134 58.23828125 53.30078125 C60.09309306 55.19089136 60.09309306 55.19089136 63 57 C64.0220314 61.87769926 64.23670037 66.8269224 64.48071289 71.79614258 C64.5198732 72.54188034 64.55903351 73.2876181 64.59938049 74.05595398 C64.7269721 76.50199449 64.84994979 78.94824119 64.97265625 81.39453125 C65.06070257 83.10936013 65.14895778 84.82417829 65.2374115 86.53898621 C65.42178859 90.12720857 65.60392862 93.7155354 65.78442383 97.30395508 C66.01473499 101.88003177 66.25015025 106.45582828 66.48720646 111.03155994 C66.67013698 114.57214279 66.85055223 118.11285042 67.03021049 121.65360069 C67.11601018 123.33956222 67.20251973 125.0254878 67.28978157 126.71137428 C67.72483291 135.14576471 68.11406893 143.55094119 68 152 C62.86843083 147.66919585 57.93340233 143.18323342 53.0625 138.5625 C51.55483183 137.13786808 50.04701586 135.71339255 48.5390625 134.2890625 C47.78141602 133.57266602 47.02376953 132.85626953 46.24316406 132.11816406 C42.16422537 128.26652365 38.06846895 124.43284979 33.97338867 120.59838867 C30.52800346 117.37167673 27.08671931 114.14077544 23.65234375 110.90234375 C22.9363501 110.22824463 22.22035645 109.55414551 21.48266602 108.85961914 C20.12118598 107.57762317 18.76091016 106.29434656 17.40209961 105.00952148 C14.54007293 102.31709638 11.67403321 99.70884357 8.6015625 97.2578125 C5.26790223 94.36463587 5.0709779 92.81046348 4.68992615 88.45941162 C4.59822413 86.96245163 4.51109232 85.46520763 4.42749023 83.96777344 C4.37857635 83.14952591 4.32966248 82.33127838 4.27926636 81.48823547 C4.11836256 78.77883498 3.96337892 76.0691314 3.80859375 73.359375 C3.69822109 71.47469355 3.58754486 69.59002985 3.47657776 67.7053833 C3.24462096 63.75116034 3.01542488 59.79679027 2.78833008 55.84228516 C2.49774457 50.78372313 2.20179581 45.72549347 1.90394497 40.66735458 C1.6749539 36.77259804 1.44810674 32.87771903 1.22197151 28.98279572 C1.11361538 27.11852425 1.00476816 25.25428126 0.89541435 23.39006805 C0.74258795 20.77676102 0.59247127 18.16331207 0.44311523 15.54980469 C0.39793259 14.78487198 0.35274994 14.01993927 0.30619812 13.23182678 C0.05702675 8.81280276 -0.04133342 4.42611462 0 0 Z " transform="translate(150,168)" style="fill: #A1CB5A;"/><path d="M0 0 C6.06394609 4.16153163 11.07729146 8.9521869 16.20849609 14.17724609 C19.73312905 17.75930688 23.34328875 21.14052819 27.17578125 24.39453125 C29.91788186 26.80781466 32.43824828 29.4294709 35 32.03125 C36.93891002 33.93986455 38.93699551 35.72710552 41 37.5 C44.50300819 40.51039766 47.73770851 43.71775133 50.9765625 47.0078125 C53.6588295 49.64865452 56.47807388 52.10671667 59.3359375 54.5546875 C62.94954811 57.69326948 62.94954811 57.69326948 63.34094238 60.07281494 C63.38376343 60.93082703 63.42658447 61.78883911 63.47070312 62.67285156 C63.5242244 63.65244339 63.57774567 64.63203522 63.63288879 65.64131165 C63.68184799 66.71358505 63.73080719 67.78585846 63.78125 68.890625 C63.83967575 70.00716965 63.8981015 71.12371429 63.95829773 72.27409363 C64.14767491 75.93233916 64.32387529 79.59109459 64.5 83.25 C64.62712083 85.75142886 64.75513511 88.25281248 64.8840332 90.75415039 C65.1418002 95.78069844 65.39462862 100.80745501 65.64306641 105.83447266 C65.96130025 112.25885185 66.29434101 118.6823348 66.63671875 125.10546875 C66.68462555 126.00441864 66.73253235 126.90336853 66.78189087 127.82955933 C66.87341842 129.54559623 66.96499945 131.26163029 67.05664062 132.97766113 C67.37621252 138.98483759 67.68764973 144.99244452 68 151 C60.7092768 144.84005194 60.7092768 144.84005194 57.5625 141.5625 C55.15087145 139.10780666 52.67232254 136.80531625 50.0625 134.5625 C47.25423653 132.14382221 44.60029407 129.64100317 42 127 C39.41990785 124.37959391 36.78896393 121.89676588 34 119.5 C30.48998489 116.48358077 27.24948724 113.26904868 24.00390625 109.97265625 C21.42531388 107.43427584 18.70207737 105.09349834 15.95703125 102.73828125 C13.32904611 100.40404295 10.88411105 97.91235704 8.4453125 95.3828125 C7.02890223 93.89145515 7.02890223 93.89145515 5 93 C4.65905762 91.26849365 4.65905762 91.26849365 4.52929688 88.97558594 C4.4757756 88.11279022 4.42225433 87.24999451 4.36711121 86.36105347 C4.31815201 85.41174957 4.26919281 84.46244568 4.21875 83.484375 C4.13111137 82.00398239 4.13111137 82.00398239 4.04170227 80.49368286 C3.8518284 77.24624937 3.67575694 73.99822562 3.5 70.75 C3.37275931 68.52095198 3.24474402 66.29194806 3.1159668 64.06298828 C2.79361764 58.44167678 2.4828669 52.8197921 2.17572021 47.19763184 C1.95987474 43.269829 1.73734629 39.34242522 1.5140686 35.41503906 C1.27687945 31.23521025 1.0439509 27.05515009 0.8125 22.875 C0.7697998 22.10667847 0.72709961 21.33835693 0.68310547 20.54675293 C0.56381752 18.38284623 0.44737417 16.21880767 0.33203125 14.0546875 C0.26733643 12.85312012 0.2026416 11.65155273 0.13598633 10.41357422 C-0.00244767 6.93855783 -0.0235896 3.47738457 0 0 Z " transform="translate(161,371)" style="fill: #C74326;"/><path d="M0 0 C3.87949716 1.79532109 6.26961294 4.10067055 9.25 7.1875 C13.05927994 11.08812654 16.95832887 14.78521343 21.10546875 18.32421875 C23.86660325 20.76654184 26.41468811 23.40554261 29 26.03125 C30.93891002 27.93986455 32.93699551 29.72710552 35 31.5 C38.51141648 34.51762353 41.75307402 37.73359081 45 41.03125 C46.93891002 42.93986455 48.93699551 44.72710552 51 46.5 C51.61528564 47.04213135 52.23057129 47.5842627 52.86450195 48.14282227 C54.24659416 49.34478585 55.65572926 50.51661896 57.09448242 51.65014648 C61.31961509 55.28426801 63.48809055 58.00959962 64.11328125 63.62890625 C64.21730373 65.93871683 64.28043959 68.25057056 64.3125 70.5625 C64.39042019 72.55673082 64.46854262 74.55095621 64.55041504 76.54502869 C64.64124671 78.86568482 64.71557058 81.18659267 64.79052734 83.5078125 C65.01993108 90.03132007 65.39668931 96.54587254 65.76953125 103.0625 C65.83962906 104.29242172 65.90972687 105.52234344 65.98194885 106.78953552 C66.12493013 109.29474973 66.26810402 111.79995295 66.41146851 114.30514526 C66.75559332 120.3604535 67.08760562 126.41637232 67.4140625 132.47265625 C67.47330399 133.5464856 67.53254547 134.62031494 67.59358215 135.72668457 C67.84903116 140.4903403 68.07667462 145.22726034 68 150 C60.31818492 143.48715678 52.76460116 136.8655773 45.70703125 129.67578125 C43.88740432 127.88946557 41.99546083 126.22522165 40.0625 124.5625 C37.25423653 122.14382221 34.60029407 119.64100317 32 117 C28.8009886 113.75100405 25.46075537 110.75493465 22.00390625 107.78515625 C19.26015447 105.34091734 16.70478284 102.73164613 14.15234375 100.08984375 C12.16476108 98.04476222 12.16476108 98.04476222 10.30319214 96.82769775 C7.52390856 94.81430887 5.39952693 93.18467815 4.27998352 89.86500549 C3.93410483 87.29864565 3.79673799 84.79585546 3.73046875 82.20703125 C3.67911774 81.24326569 3.62776672 80.27950012 3.57485962 79.28652954 C3.41424575 76.12913352 3.30063066 72.9719227 3.1875 69.8125 C3.08526862 67.62689244 2.98001078 65.44142448 2.87182617 63.25610352 C2.65463821 58.75435013 2.45700384 54.25239022 2.27636719 49.74902344 C2.01433651 43.22922156 1.70500402 36.71238412 1.3828125 30.1953125 C0.88940458 20.13154028 0.43187941 10.06658947 0 0 Z " transform="translate(156,271)" style="fill: #C6CD47;"/><path d="M0 0 C0.57234375 0.5878125 1.1446875 1.175625 1.734375 1.78125 C2.53101563 2.53148437 2.53101563 2.53148437 3.34375 3.296875 C4.84838008 4.73558057 6.29411347 6.21582584 7.734375 7.71875 C11.64309398 11.71591265 15.61504277 15.51438042 19.875 19.140625 C22.62657905 21.56848887 25.16083574 24.19874919 27.734375 26.8125 C29.67328502 28.72111455 31.67137051 30.50835552 33.734375 32.28125 C37.24098093 35.29473947 40.47959815 38.50424285 43.71875 41.80078125 C46.32134359 44.35798077 49.07203845 46.70909787 51.875 49.04296875 C54.08596331 51.10994075 55.8635217 53.40631375 57.734375 55.78125 C55.8984375 56.20963542 54.0625 56.63802083 52.2265625 57.06640625 C51.02789551 57.34613281 49.82922852 57.62585938 48.59423828 57.9140625 C45.89738636 58.54334752 43.20043444 59.17220183 40.50341797 59.80078125 C33.72980776 61.37984162 26.95717724 62.96273085 20.1875 64.55859375 C6.79491936 67.7098941 -6.61593251 70.74536937 -20.06430054 73.64733887 C-32.75505893 76.39219261 -45.37234371 79.41018243 -57.98008728 82.5120697 C-61.07432108 83.27233403 -64.17010909 84.02622579 -67.265625 84.78125 C-68.46396973 85.07837891 -69.66231445 85.37550781 -70.89697266 85.68164062 C-72.03569824 85.95685547 -73.17442383 86.23207031 -74.34765625 86.515625 C-75.34643799 86.76022461 -76.34521973 87.00482422 -77.37426758 87.25683594 C-80.39819549 87.8052947 -83.19911235 87.87347594 -86.265625 87.78125 C-87.10104064 84.80293628 -87.46825235 82.00046073 -87.65454102 78.9152832 C-87.71452774 77.94939774 -87.77451447 76.98351227 -87.83631897 75.98835754 C-87.89677902 74.94676987 -87.95723907 73.90518219 -88.01953125 72.83203125 C-88.08470444 71.7460112 -88.14987762 70.65999115 -88.21702576 69.5410614 C-88.3542044 67.23541411 -88.48941063 64.92964875 -88.62280273 62.6237793 C-88.8247508 59.15176134 -89.03595595 55.68039559 -89.24804688 52.20898438 C-89.97192688 40.0517981 -90.48594097 27.96035959 -90.265625 15.78125 C-88.47258021 15.28661696 -86.67952054 14.79203773 -84.88635254 14.29785156 C-83.50786114 13.91718105 -82.13016916 13.5336128 -80.75292969 13.1484375 C-77.42491312 12.24616727 -74.74235088 11.78125 -71.265625 11.78125 C-71.22824219 12.95042969 -71.19085938 14.11960937 -71.15234375 15.32421875 C-71.0866622 16.87242675 -71.02021561 18.42060242 -70.953125 19.96875 C-70.93056641 20.73767578 -70.90800781 21.50660156 -70.88476562 22.29882812 C-70.66816689 26.88678304 -70.23939317 30.07270461 -67.265625 33.78125 C-59.60667926 39.92285743 -49.40346838 38.99196536 -40.25537109 38.0065918 C-39.27044678 37.89504761 -39.27044678 37.89504761 -38.265625 37.78125 C-38.23122314 38.4518042 -38.19682129 39.1223584 -38.16137695 39.81323242 C-37.99106486 42.86696785 -37.78497325 45.91728067 -37.578125 48.96875 C-37.49788086 50.55139648 -37.49788086 50.55139648 -37.41601562 52.16601562 C-36.96640445 58.43440413 -36.96640445 58.43440413 -34.05859375 63.89453125 C-28.71462424 67.50451345 -23.79425393 68.14354944 -17.453125 68.09375 C-16.74897461 68.09101074 -16.04482422 68.08827148 -15.31933594 68.08544922 C-9.83086568 67.97547757 -5.21243315 67.12560691 -0.265625 64.78125 C0.45109375 64.47960937 1.1678125 64.17796875 1.90625 63.8671875 C4.0754374 62.84828608 4.0754374 62.84828608 4.734375 59.78125 C4.91512788 54.50220268 4.86260736 49.23196607 4.77148438 43.95117188 C4.74067984 42.14991721 4.72745288 40.34837203 4.71875 38.546875 C4.52541926 33.98979338 4.20232021 32.31604452 1.109375 28.78125 C-7.4765207 23.6933118 -17.63726945 23.37416111 -27.265625 25.78125 C-27.925625 17.53125 -28.585625 9.28125 -29.265625 0.78125 C-25.635625 -0.1675 -22.005625 -1.11625 -18.265625 -2.09375 C-17.13769531 -2.40940918 -16.00976562 -2.72506836 -14.84765625 -3.05029297 C-8.36881252 -4.59575763 -5.01023568 -4.56511144 0 0 Z " transform="translate(497.265625,295.21875)" style="fill: #C54226;"/><path d="M0 0 C3.81271791 3.17726492 7.45516471 6.399999 10.9375 9.9375 C14.18041781 13.23050149 17.56329888 16.27371307 21.06640625 19.28515625 C23.56569138 21.50169397 25.88281884 23.87162281 28.22265625 26.25390625 C30.06593574 28.06477643 31.97822799 29.75321354 33.9375 31.4375 C36.74576347 33.85617779 39.39970593 36.35899683 42 39 C44.58009215 41.62040609 47.21103607 44.10323412 50 46.5 C62.7060852 57.47000623 62.7060852 57.47000623 63.27210999 64.26811218 C63.34598385 65.6364405 63.41516881 67.00502669 63.48071289 68.3737793 C63.5198732 69.12214554 63.55903351 69.87051178 63.59938049 70.64155579 C63.72792809 73.11891772 63.85039184 75.59653938 63.97265625 78.07421875 C64.06059824 79.7995611 64.14885449 81.52488747 64.2374115 83.25019836 C64.42235775 86.87069269 64.60447247 90.49131458 64.78442383 94.11206055 C65.01440779 98.73778902 65.24983091 103.3632196 65.48720646 107.98857403 C65.66987949 111.55483248 65.85040118 115.1211972 66.03021049 118.68760109 C66.11624886 120.39194975 66.20276583 122.09627431 66.28978157 123.80057335 C66.41147023 126.19336727 66.53045051 128.5862811 66.64868164 130.97924805 C66.68451355 131.67513031 66.72034546 132.37101257 66.75726318 133.08798218 C66.98292327 137.73244559 67.02917133 142.35182572 67 147 C62.43948499 144.16490239 58.83407478 141.05243872 55.125 137.1875 C51.17423328 133.14888423 47.16420641 129.30506827 42.859375 125.640625 C40.10917227 123.21397553 37.57611823 120.58513769 35.00390625 117.97265625 C32.41753849 115.42662171 29.6846472 113.07978443 26.93359375 110.71484375 C24.43843612 108.50196658 22.12488754 106.13630102 19.7890625 103.7578125 C17.88010281 101.88219709 15.898721 100.12585974 13.875 98.375 C13.21113281 97.79621094 12.54726562 97.21742188 11.86328125 96.62109375 C11.24839844 96.08613281 10.63351563 95.55117188 10 95 C4.96391992 90.60682376 4.30251811 88.02190478 3.80908203 81.46179199 C3.61180338 78.31392808 3.44309744 75.16550829 3.28125 72.015625 C3.21844849 70.84602234 3.15564697 69.67641968 3.09094238 68.47137451 C2.8908014 64.73107672 2.69529769 60.9905535 2.5 57.25 C2.36880291 54.77993125 2.23729555 52.30987897 2.10546875 49.83984375 C1.85089125 45.06634117 1.598508 40.29272982 1.34741211 35.51904297 C1.1348165 31.49674437 0.91599028 27.47494262 0.68579102 23.45361328 C0.63874023 22.63004333 0.59168945 21.80647339 0.54321289 20.95794678 C0.4584421 19.48655134 0.37239767 18.01522833 0.28466797 16.54400635 C-0.03337195 11.02608281 -0.10952971 5.52516545 0 0 Z " transform="translate(167,472)" style="fill: #C82A69;"/><path d="M0 0 C4.76187683 4.02970803 9.3933014 8.16408247 13.9375 12.4375 C14.58009766 13.03949219 15.22269531 13.64148438 15.88476562 14.26171875 C17.924484 16.17309085 19.9623017 18.08647469 22 20 C23.334504 21.25144224 24.66913857 22.50274525 26.00390625 23.75390625 C28.67065422 26.25381955 31.3373207 28.7538197 34.00390625 31.25390625 C34.66277832 31.87152832 35.32165039 32.48915039 36.00048828 33.12548828 C37.3402096 34.38145657 38.67972584 35.63764366 40.01904297 36.89404297 C41.34659086 38.13896206 42.67470622 39.38327631 44.00341797 40.62695312 C45.27594563 41.81820094 46.54714299 43.01087169 47.81689453 44.20507812 C51.89698965 48.0268002 56.080632 51.67825462 60.4609375 55.15625 C64.20388784 59.64019051 63.38110089 67.71719112 63.71875 73.36328125 C63.78132492 74.3766304 63.84389984 75.38997955 63.90837097 76.43403625 C64.10971589 79.72662239 64.30537006 83.01951053 64.5 86.3125 C64.56692047 87.42816345 64.63384094 88.5438269 64.70278931 89.69329834 C65.82287276 108.45667736 66.62857298 127.20702384 67 146 C62.23229028 141.97732969 57.60636744 137.83564277 53.0625 133.5625 C52.09751587 132.65842407 52.09751587 132.65842407 51.11303711 131.73608398 C49.07412873 129.82536232 47.03707623 127.91267462 45 126 C43.67724638 124.76024268 42.35433102 123.52065791 41.03125 122.28125 C35.5876588 117.18085775 30.14498875 112.07955487 24.71484375 106.96484375 C24.00900146 106.300896 23.30315918 105.63694824 22.57592773 104.95288086 C21.24232984 103.69832957 19.90972457 102.4427218 18.57836914 101.18579102 C17.65785767 100.32038696 17.65785767 100.32038696 16.71875 99.4375 C16.15229263 98.89839493 15.58583527 98.35928986 15.00221252 97.80384827 C13.04322239 95.98070247 13.04322239 95.98070247 10.93600464 94.47335815 C7.0958821 91.55183307 4.58294123 89.39197531 3.83837891 84.49267578 C3.72117967 82.77073234 3.64463471 81.04570221 3.6015625 79.3203125 C3.54690826 78.37157257 3.49225403 77.42283264 3.4359436 76.44534302 C3.32077875 74.38451688 3.22217812 72.32271269 3.13830566 70.26037598 C2.99658452 66.91948459 2.79827882 63.58606958 2.58496094 60.24902344 C2.2113215 54.33460486 1.88037264 48.41889194 1.56738281 42.50097656 C1.37335947 38.84407975 1.1714516 35.18767501 0.96875 31.53125 C0.84068229 29.16408753 0.7130619 26.79690081 0.5859375 24.4296875 C0.52659027 23.35758026 0.46724304 22.28547302 0.40609741 21.18087769 C0.03804033 14.11436148 -0.06661401 7.07559165 0 0 Z " transform="translate(172,570)" style="fill: #BB92C1;"/><path d="M0 0 C0.99 0.99 0.99 0.99 2 2 C3.98343396 2.80432248 5.9934905 3.45581465 8.02734375 4.12109375 C10.25876207 5.11529003 11.49495608 6.07977155 13 8 C13 8.99 13 9.98 13 11 C13.99 11 14.98 11 16 11 C16.99 20.9 16.99 20.9 18 31 C19.65 30.67 21.3 30.34 23 30 C32.61073587 29.11828111 40.11575666 30.19165668 47.73046875 36.4140625 C50.33342576 39.66575649 49.83381871 43.992657 50 48 C50.05679932 49.06250977 50.05679932 49.06250977 50.11474609 50.14648438 C50.23297684 52.53504477 50.30873692 54.92196899 50.375 57.3125 C50.41326904 58.08924072 50.45153809 58.86598145 50.4909668 59.66625977 C50.55129985 63.86462382 50.40177381 65.48796236 47.72265625 68.90234375 C40.26090638 74.65120986 32.47820109 76.93611863 23 76 C17.36984611 74.83099095 11.86867678 73.47315752 8 69 C5.58585456 62.60251458 5.57293778 55.86799688 5.24609375 49.09765625 C5.34754594 46.13125059 5.34754594 46.13125059 4 45 C1.85105764 45.17335001 -0.29445567 45.38970342 -2.4375 45.625 C-10.4464289 46.24420508 -17.09203302 45.54788204 -23.5625 40.5 C-27.62503385 36.33329861 -27.12486542 32.30545414 -27.0625 26.8125 C-27.05798828 26.06291016 -27.05347656 25.31332031 -27.04882812 24.54101562 C-27.03706354 22.69397617 -27.01912865 20.84697787 -27 19 C-27.81992432 19.24596924 -28.63984863 19.49193848 -29.48461914 19.74536133 C-38.04042527 22.2575477 -46.62636081 24.36600777 -55.34350586 26.23754883 C-57.46134617 26.69262399 -59.57740434 27.15538631 -61.69335938 27.61914062 C-67.7793943 28.94124667 -73.82193798 30.17576395 -80 31 C-80.0825 31.556875 -80.165 32.11375 -80.25 32.6875 C-82.02243296 38.15250162 -86.13134085 41.28478624 -91 44 C-98.94356036 46.64785345 -107.38004962 47.43125911 -115.234375 44.046875 C-118.44006226 42.14615777 -120.02571605 40.18432895 -122 37 C-122.17285561 33.45646008 -121.14425292 32.18933195 -119 29.375 C-111.55819002 23.4835671 -103.22060264 23.31209277 -94 24 C-93.34 24.33 -92.68 24.66 -92 25 C-92 24.34 -92 23.68 -92 23 C-85.36003364 24.78768325 -85.36003364 24.78768325 -83.09234619 26.12496948 C-80.27883384 27.3015956 -78.72146098 26.82694946 -75.77246094 26.12548828 C-74.73168396 25.8850882 -73.69090698 25.64468811 -72.61859131 25.39700317 C-71.50179993 25.12419525 -70.38500854 24.85138733 -69.234375 24.5703125 C-68.08584045 24.30113007 -66.93730591 24.03194763 -65.75396729 23.75460815 C-62.08277297 22.89103454 -58.41649765 22.00827953 -54.75 21.125 C-52.2633206 20.53649235 -49.77634448 19.94923693 -47.2890625 19.36328125 C-41.18918965 17.92337237 -35.09324573 16.46768476 -29 15 C-28.58427734 13.35257813 -28.58427734 13.35257813 -28.16015625 11.671875 C-26.774464 7.28618235 -24.86233037 5.2675617 -21 3 C-14.37928767 -0.26447004 -7.2931407 -0.8760871 0 0 Z " transform="translate(519,68)" style="fill: #040502;"/><path d="M0 0 C0.495 1.485 0.495 1.485 1 3 C0.02160156 2.96519531 -0.95679688 2.93039063 -1.96484375 2.89453125 C-14.45566339 2.61505773 -14.45566339 2.61505773 -25.5 7.875 C-27.29832007 10.4226201 -28 11.86369069 -28 15 C-25.65529206 19.28164058 -22.76182953 21.03899043 -18.265625 22.49609375 C-10.67492965 24.1843691 -3.07472471 23.17229649 4 20 C7.20647693 17.33930638 9.60827774 14.39876322 12 11 C13.0891728 13.1783456 13.28032356 14.7203964 13.53515625 17.1328125 C13.62216797 17.93847656 13.70917969 18.74414062 13.79882812 19.57421875 C13.88583984 20.41597656 13.97285156 21.25773437 14.0625 22.125 C14.15337891 22.97449219 14.24425781 23.82398437 14.33789062 24.69921875 C14.5620368 26.7991145 14.78146448 28.89951293 15 31 C15.60432861 30.83918945 16.20865723 30.67837891 16.83129883 30.51269531 C24.54660043 28.68874694 32.88844158 29.55329377 40 33 C44.57142857 36.14285714 44.57142857 36.14285714 46 39 C46.47839701 42.02984773 46.78759506 44.94372896 47 48 C47.04608398 48.6511377 47.09216797 49.30227539 47.13964844 49.97314453 C48.0636437 64.86160837 48.0636437 64.86160837 44.4375 69.375 C37.83392991 75.23099612 29.45937311 76.36591637 20.921875 76.28515625 C15.07413627 75.71445448 10.00141985 73.6108989 5.4375 69.9375 C3.08872253 66.77175645 2.84569561 63.93425377 2.68359375 60.11328125 C2.62075195 58.7065918 2.62075195 58.7065918 2.55664062 57.27148438 C2.51732422 56.29501953 2.47800781 55.31855469 2.4375 54.3125 C2.39431641 53.32443359 2.35113281 52.33636719 2.30664062 51.31835938 C2.20058346 48.87904454 2.09852286 46.43962887 2 44 C0.93394531 44.32355469 -0.13210938 44.64710938 -1.23046875 44.98046875 C-9.12041349 47.11443308 -16.50342898 46.31000431 -24 43 C-27.22333025 40.36871 -28.69005131 38.92984608 -30 35 C-30.07051114 32.26134713 -30.09357765 29.54972412 -30.0625 26.8125 C-30.05798828 26.06291016 -30.05347656 25.31332031 -30.04882812 24.54101562 C-30.03706354 22.69397617 -30.01912865 20.84697787 -30 19 C-30.54296219 19.19032303 -31.08592438 19.38064606 -31.64533997 19.57673645 C-37.10942647 21.4508366 -42.5722505 22.96619215 -48.19921875 24.26171875 C-49.03789993 24.45723831 -49.87658112 24.65275787 -50.74067688 24.85420227 C-52.49725867 25.26219661 -54.25436228 25.66795042 -56.01196289 26.0715332 C-58.69285647 26.68873317 -61.37083274 27.31762446 -64.04882812 27.94726562 C-65.76546087 28.34446003 -67.48225252 28.74096841 -69.19921875 29.13671875 C-69.99309494 29.3241716 -70.78697113 29.51162445 -71.60490417 29.70475769 C-75.82422009 30.66230104 -79.64027174 31.20723372 -84 31 C-84.33 32.65 -84.66 34.3 -85 36 C-85.33 36 -85.66 36 -86 36 C-86.20625 35.0925 -86.4125 34.185 -86.625 33.25 C-88.3398654 29.19668178 -90.19851249 28.0946972 -94 26 C-101.01797759 23.66067414 -110.44158747 23.86892891 -117.25 26.8125 C-119.9634164 28.18498388 -122.01871734 29.68160358 -124 32 C-124.72197162 34.60611077 -124.72197162 34.60611077 -125 37 C-126.125 35.25 -126.125 35.25 -127 33 C-125.89929804 29.08639304 -123.35290073 27.12122291 -120 25 C-109.49825895 21.07645605 -100.44127907 20.89133784 -90 25 C-89.01 25.66 -88.02 26.32 -87 27 C-80.77707888 26.59253663 -74.79304341 25.13898875 -68.734375 23.71484375 C-67.7785553 23.49429825 -66.8227356 23.27375275 -65.83795166 23.04652405 C-61.77759234 22.10960582 -57.71940195 21.16345371 -53.66113281 20.2175293 C-50.68635675 19.5255829 -47.71042073 18.83880508 -44.734375 18.15234375 C-43.81767029 17.93674301 -42.90096558 17.72114227 -41.95648193 17.49900818 C-41.1016925 17.30202835 -40.24690308 17.10504852 -39.36621094 16.90209961 C-38.24324615 16.64015053 -38.24324615 16.64015053 -37.09759521 16.37290955 C-35 16 -35 16 -31 16 C-31.103125 15.13375 -31.20625 14.2675 -31.3125 13.375 C-30.98426714 9.83008513 -30.23746197 7.98638036 -27.78515625 5.390625 C-19.62369412 -0.96710042 -9.77803735 -0.47504635 0 0 Z " transform="translate(426,90)" style="fill: #040502;"/><path d="M0 0 C2.92161999 0.32462444 4.29328947 1.21826193 6.6875 3 C9.75409961 6.97829139 9.88389493 10.16228891 10 15 C10.08547736 16.37242457 10.17145697 17.74481791 10.2578125 19.1171875 C10.88449029 32.08459719 10.88449029 32.08459719 7.4375 36.375 C0.83392991 42.23099612 -7.54062689 43.36591637 -16.078125 43.28515625 C-21.92586373 42.71445448 -26.99858015 40.6108989 -31.5625 36.9375 C-33.90341117 33.78235886 -34.12186675 31.13307958 -34.09765625 27.33203125 C-34.09443359 26.43935547 -34.09121094 25.54667969 -34.08789062 24.62695312 C-34.07951172 23.69818359 -34.07113281 22.76941406 -34.0625 21.8125 C-34.05798828 20.87212891 -34.05347656 19.93175781 -34.04882812 18.96289062 C-34.03704626 16.64186288 -34.02059558 14.32096356 -34 12 C-33.34 12 -32.68 12 -32 12 C-31.195625 13.1446875 -31.195625 13.1446875 -30.375 14.3125 C-26.76956767 18.39233132 -22.96045004 19.64687442 -17.609375 20.28515625 C-10.14943668 20.55493389 -3.32177731 19.03374121 3.0625 15.125 C5.345234 12.62135626 6 11.38879768 6 8 C4.47108462 4.7892777 2.63049736 2.3799738 0 0 Z " transform="translate(463,123)" style="fill: #030401;"/><path d="M0 0 C0.66 0 1.32 0 2 0 C2.79897835 5.74347549 3.26808989 11.39005644 3.375 17.1875 C3.43107422 18.35829102 3.43107422 18.35829102 3.48828125 19.55273438 C3.55294889 23.7884647 3.41810068 25.4657204 0.72265625 28.91015625 C-6.74916041 34.64533833 -14.51897674 36.93639736 -24 36 C-29.63015389 34.83099095 -35.13132322 33.47315752 -39 29 C-40.80830737 23.20203547 -41.26114179 18.04260105 -41.125 12 C-41.11597656 11.22527344 -41.10695313 10.45054688 -41.09765625 9.65234375 C-41.07439388 7.76809157 -41.0385364 5.88400168 -41 4 C-40.34 4 -39.68 4 -39 4 C-38.56816406 4.77730469 -38.13632812 5.55460937 -37.69140625 6.35546875 C-34.76427955 10.93206177 -30.08246815 11.74944534 -25 13 C-17.7272107 14.0843466 -11.38995392 12.60968146 -5 9 C-2.14058321 6.21032509 -0.58826544 3.9707917 0 0 Z " transform="translate(566,108)" style="fill: #030401;"/><path d="M0 0 C3.29260405 0.56769035 4.8767028 1.41665508 7 4 C7.8994572 7.24765845 7.86085105 10.64452235 8 14 C8.03786621 14.70833984 8.07573242 15.41667969 8.11474609 16.14648438 C8.23297684 18.53504477 8.30873692 20.92196899 8.375 23.3125 C8.41326904 24.08924072 8.45153809 24.86598145 8.4909668 25.66625977 C8.55195393 29.91013857 8.40322543 31.49275997 5.66796875 34.93359375 C-3.17327772 41.78135273 -12.32306473 41.58257087 -23 41 C-27.17973394 40.22845028 -30.08372643 38.72832002 -33.4375 36.0625 C-37.33257828 28.42814657 -36.14870507 18.39357499 -36 10 C-35.34 10 -34.68 10 -34 10 C-33.67 10.7425 -33.34 11.485 -33 12.25 C-29.91660421 16.48966921 -25.96831072 17.67653261 -21 19 C-13.50001733 20.16379041 -6.71784313 18.40326376 0 15 C2.85636594 12.85504869 2.85636594 12.85504869 4 10 C3.91253195 5.71406558 2.82241489 3.19055597 0 0 Z " transform="translate(495,323)" style="fill: #020000;"/><path d="M0 0 C4.33636543 0.26281003 7.39243866 1.95951068 10.55078125 4.81640625 C13.69659146 9.55631975 13.01748372 15.50428503 13 21 C13.04769531 22.12277344 13.09539062 23.24554688 13.14453125 24.40234375 C13.33041113 29.9718557 13.39723779 33.36525332 10 38 C1.75633041 43.6574203 -7.13110255 45.06340288 -17 44 C-22.16654594 42.51068364 -26.65059031 40.32632084 -30 36 C-31.25433458 32.23699626 -31.10695422 28.72789091 -31.0625 24.8125 C-31.05798828 24.06291016 -31.05347656 23.31332031 -31.04882812 22.54101562 C-31.03706354 20.69397617 -31.01912865 18.84697787 -31 17 C-27 18.33333333 -23 19.66666667 -19 21 C-9.54695629 21.75109314 -0.91838305 22.0322446 7 16 C9.28999155 13.13216429 9.28999155 13.13216429 9.125 9.625 C7.69222929 5.00829437 5.83946193 4.13447716 1.71484375 1.9453125 C1.14894531 1.63335937 0.58304687 1.32140625 0 1 C0 0.67 0 0.34 0 0 Z " transform="translate(364,144)" style="fill: #030401;"/><path d="M0 0 C3.95536688 1.31845563 6.58184307 2.5454901 9 6 C9.83801275 9.31015035 9.88577206 12.59763918 10 16 C10.04705078 16.70157227 10.09410156 17.40314453 10.14257812 18.12597656 C11.06314987 31.96368473 11.06314987 31.96368473 8.75390625 36.38671875 C6.91363435 38.07398883 5.28955233 39.01510877 3 40 C2.03900391 40.49306641 2.03900391 40.49306641 1.05859375 40.99609375 C-6.55451108 44.24647057 -16.30649264 44.53509451 -24.1171875 41.98046875 C-28.14552707 40.04803339 -30.49058455 38.76412318 -33 35 C-34.16829935 27.75874837 -34.1457289 20.31882936 -34 13 C-33.34 13 -32.68 13 -32 13 C-31.2265625 14.1446875 -31.2265625 14.1446875 -30.4375 15.3125 C-26.5895969 19.55505983 -22.14129619 20.63542985 -16.54296875 21.28515625 C-9.00388674 21.55822536 -2.04907778 20.195336 4.125 15.75 C6.22797112 13.05315236 6.22797112 13.05315236 6.6875 9.5 C5.74258379 4.68951745 3.92436639 3.77975953 0 1 C0 0.67 0 0.34 0 0 Z " transform="translate(270,167)" style="fill: #020301;"/><path d="M0 0 C2.49292873 1.6779328 4.34010839 2.94253969 6.25 5.1875 C6.875 8.5 6.875 8.5 6.25 12.1875 C2.14944171 17.85205328 -4.12333276 19.93324122 -10.75 21.1875 C-18.08451705 22.16907106 -24.46420799 19.99803846 -30.8125 16.5 C-33.08232124 13.79085851 -33.59164971 11.75733065 -33.3671875 8.21875 C-32.18404102 4.32485021 -29.16891602 2.16820043 -25.75 0.1875 C-18.01568034 -2.98444009 -7.6689148 -3.72042149 0 0 Z " transform="translate(333.75,115.8125)" style="fill: #A0C95A;"/><path d="M0 0 C2.5625 1.75 2.5625 1.75 4 4 C4.5625 7.4375 4.5625 7.4375 4 11 C-0.00856714 16.34475618 -5.58877261 18.65026792 -12 20 C-19.87838919 20.70755827 -26.88368636 19.71074313 -33.5625 15.3125 C-35.28404236 12.54306228 -35.69370716 10.21763914 -35.5 6.9609375 C-34.79442852 4.19377437 -33.27515968 2.63925414 -30.9609375 1.03125 C-21.09284811 -4.15834283 -10.12465465 -4.78395087 0 0 Z " transform="translate(273,169)" style="fill: #A0C95A;"/><path d="M0 0 C2.60745485 2.47708211 3.77559919 4.00266307 4.5625 7.5 C3.60082368 11.77411697 0.79542546 13.60707546 -2.55078125 16.203125 C-9.2399973 20.41540296 -17.42493153 19.77852708 -25 19 C-29.06107974 17.85141179 -31.87989133 15.98433792 -35.0625 13.1875 C-36.55022806 9.71613452 -36.06775555 7.58012155 -35 4 C-26.32967201 -5.07359906 -10.80189522 -5.91047097 0 0 Z " transform="translate(370,147)" style="fill: #A0C95A;"/><path d="M0 0 C0.71051514 0.00161133 1.42103027 0.00322266 2.15307617 0.00488281 C9.01264486 0.16541419 13.14482845 1.60893496 18.25 6.25 C19.65714478 9.43952818 19.32494668 11.09647721 18.1875 14.375 C12.78136596 20.18659409 6.10519001 22.44255385 -1.75 22.8125 C-7.16601014 22.63478717 -12.14910783 21.14736525 -16.8125 18.375 C-19.37264579 15.60712308 -19.80444658 14.81793803 -19.875 10.9375 C-18.51694218 6.384012 -16.71214931 4.99976396 -12.8125 2.375 C-8.6042581 0.25974614 -4.6352718 -0.0108364 0 0 Z " transform="translate(480.8125,320.625)" style="fill: #C54226;"/><path d="M0 0 C0.7014917 0.00612305 1.4029834 0.01224609 2.12573242 0.01855469 C8.91393737 0.22366024 13.07432127 1.72097388 18.125 6.3125 C19.53214478 9.50202818 19.19994668 11.15897721 18.0625 14.4375 C12.65636596 20.24909409 5.98019001 22.50505385 -1.875 22.875 C-7.29101014 22.69728717 -12.27410783 21.20986525 -16.9375 18.4375 C-19.14145327 15.97830047 -19.87693496 14.79331963 -20.4375 11.5 C-19.75288994 7.3067634 -18.24783799 6.04351076 -14.9375 3.4375 C-9.88592339 0.87456775 -5.70094826 -0.08469122 0 0 Z " transform="translate(447.9375,290.5625)" style="fill: #C54226;"/><path d="M0 0 C2.12986887 2.30191956 3.18618157 4.05305026 3.33984375 7.203125 C1.21262143 11.81210668 -1.73900882 14.07880508 -6.16015625 16.453125 C-13.64872434 18.93033193 -23.40145521 19.24862275 -30.59765625 15.828125 C-33.78515625 13.640625 -33.78515625 13.640625 -35.78515625 10.640625 C-36.22265625 7.765625 -36.22265625 7.765625 -35.78515625 4.640625 C-32.03232036 -0.10560862 -27.71380597 -2.67394634 -21.84765625 -4.046875 C-14.34804508 -4.81214145 -6.27794057 -4.78057619 0 0 Z " transform="translate(240.78515625,140.359375)" style="fill: #A0C95A;"/><path d="M0 0 C1.70703125 1.16796875 1.70703125 1.16796875 3.70703125 4.16796875 C4.18495925 7.8320834 4.0142386 9.63957211 2.14453125 12.85546875 C-3.93878405 18.62681916 -11.70340005 19.49835668 -19.73046875 19.37890625 C-25.22301847 18.92677563 -29.54491481 17.35476801 -33.35546875 13.29296875 C-35.29296875 10.16796875 -35.29296875 10.16796875 -35.41796875 7.60546875 C-33.23280873 2.87095538 -30.08557785 0.23198665 -25.29296875 -1.64453125 C-16.69454668 -4.13807365 -8.07331196 -3.9093403 0 0 Z " transform="translate(432.29296875,94.83203125)" style="fill: #A0C95A;"/><path d="M0 0 C2.04241768 1.80526492 2.92075725 2.78491254 3.875 5.375 C4.04354678 8.91448233 3.19616559 10.237082 1 13 C-4.86691639 17.77539706 -11.32554781 19.47700945 -18.8515625 19.25390625 C-24.17777874 18.62444433 -29.15011397 17.23325735 -33.625 14.25 C-35.70551666 10.84551819 -35.7421505 8.9131572 -35 5 C-26.67918255 -5.20346051 -11.13201283 -5.78008359 0 0 Z " transform="translate(529,73)" style="fill: #A0C95A;"/><path d="M0 0 C2.1875 2.375 2.1875 2.375 3 5 C2.41002453 8.61359978 1.46671318 10.48953246 -1 13.1875 C-7.95643537 17.39034637 -15.92230364 19.1796001 -24 18 C-28.61539083 16.54250816 -32.87528342 14.81804275 -36 11 C-36.625 7.6875 -36.625 7.6875 -36 4 C-32.79960828 -0.26718897 -28.55724731 -2.77132608 -23.296875 -3.75 C-14.8686984 -4.66735255 -7.28033528 -4.88005007 0 0 Z " transform="translate(467,126)" style="fill: #A1CA5A;"/><path d="M0 0 C2.5625 2.3125 2.5625 2.3125 4 5 C4.125 8 4.125 8 3 11 C-2.24146472 16.49714593 -8.22733901 19.07687428 -15.8125 19.4375 C-22.05472488 19.23457938 -29.40676024 17.75531724 -33.8125 13.07421875 C-35 11 -35 11 -35.0625 7.5625 C-33.69731883 2.98512786 -31.9492522 1.60799674 -28 -1 C-19.15167452 -4.55924204 -8.45357918 -4.53988512 0 0 Z " transform="translate(562,103)" style="fill: #A1CA5A;"/><path d="M0 0 C8.87291587 -0.62583262 15.53392243 -0.11671339 23 5 C24.7734375 6.54296875 24.7734375 6.54296875 26 8 C26 8.66 26 9.32 26 10 C25.01 10 24.02 10 23 10 C21.8553125 8.824375 21.8553125 8.824375 20.6875 7.625 C15.16977148 2.23559074 7.35190323 2.11825065 0 1 C0 0.67 0 0.34 0 0 Z " transform="translate(542,98)" style="fill: #1E2510;"/><path d="M0 0 C-0.33 0.66 -0.66 1.32 -1 2 C-1.66644531 1.83371094 -2.33289063 1.66742188 -3.01953125 1.49609375 C-7.26731057 0.7890584 -11.4420505 0.99186146 -15.73632812 1.12695312 C-17.49114463 1.15663659 -19.24699476 1.08505706 -21 1 C-21.66 0.34 -22.32 -0.32 -23 -1 C-15.5369407 -3.22644967 -7.25368954 -2.63770529 0 0 Z " transform="translate(464,122)" style="fill: #273116;"/><path d="M0 0 C8.35740901 -0.32098157 15.22270481 -0.21819111 23 3 C22.01 3.66 21.02 4.32 20 5 C18.31435784 4.38288355 16.6496684 3.70768383 15 3 C11.91136497 2.64701314 8.84637992 2.49857256 5.7421875 2.34375 C3 2 3 2 0 0 Z " transform="translate(474,319)" style="fill: #2E0F09;"/><path d="M0 0 C-3.87671106 2.67289025 -7.79267603 2.01875653 -12.25 1.625 C-12.99507813 1.56828125 -13.74015625 1.5115625 -14.5078125 1.453125 C-16.33935108 1.31223742 -18.16981352 1.15748116 -20 1 C-20 0.67 -20 0.34 -20 0 C-6.3667426 -1.33257403 -6.3667426 -1.33257403 0 0 Z " transform="translate(495,364)" style="fill: #90301C;"/><path d="M0 0 C4.24822374 0.47202486 6.19989709 2.96655518 9 6 C8.67 6.66 8.34 7.32 8 8 C7.34 8 6.68 8 6 8 C4.97388051 6.34928604 3.97691857 4.68029994 3 3 C1.41754725 1.24850835 1.41754725 1.24850835 0 0 Z " transform="translate(463,123)" style="fill: #13180A;"/><path d="M0 0 C0.33 0.99 0.66 1.98 1 3 C0.34 3.66 -0.32 4.32 -1 5 C-1.64767793 7.57061311 -1.64767793 7.57061311 -2 10 C-3.125 8.25 -3.125 8.25 -4 6 C-3.05773345 3.33024478 -2.01384202 2.01384202 0 0 Z " transform="translate(303,117)" style="fill: #0E1208;"/><path d="M0 0 C0 0.66 0 1.32 0 2 C-4.29 1.67 -8.58 1.34 -13 1 C-13 0.67 -13 0.34 -13 0 C-4.57142857 -1.28571429 -4.57142857 -1.28571429 0 0 Z " transform="translate(427,91)" style="fill: #0D1107;"/><path d="M0 0 C3.24271506 0.5590888 4.93057424 1.4132178 7 4 C7 4.66 7 5.32 7 6 C6.01 6 5.02 6 4 6 C1.8125 3 1.8125 3 0 0 Z " transform="translate(495,323)" style="fill: #140603;"/><path d="M0 0 C0 0.66 0 1.32 0 2 C-3.63 1.67 -7.26 1.34 -11 1 C-11 0.67 -11 0.34 -11 0 C-6.98195309 -0.84098656 -3.98196457 -1.05404945 0 0 Z " transform="translate(524,69)" style="fill: #171D0D;"/></svg>